<?xml version="1.0" encoding="UTF-8"?>
<svg version="1.1" xmlns="http://www.w3.org/2000/svg" width="1500" height="600">
<path d="M0 0 C16.02854378 17.22517377 14.77520056 50.33889606 16.60595703 72.29003906 C17.35983838 81.2905929 18.18301758 90.21865533 19.56738281 99.14794922 C20.31766827 104.09424418 20.74328814 109.00528014 21 114 C21.04995117 114.7410498 21.09990234 115.48209961 21.15136719 116.24560547 C22.47128578 137.50302045 15.24954001 153.36211355 5.55078125 171.9140625 C0.44984789 181.48309872 0.44984789 181.48309872 -1 192 C-0.01 192 0.98 192 2 192 C3.82047511 189.59018464 5.35504723 187.28116009 6.875 184.6875 C7.32552734 183.91986328 7.77605469 183.15222656 8.24023438 182.36132812 C11.63424305 176.27772767 13.48854338 170.42078296 15.03344727 163.66845703 C20.30130062 141.36045831 30.04347082 123.68252843 45.828125 107.34765625 C48.39392438 104.68591111 50.69604672 101.89251777 53 99 C54.09243135 97.96452004 55.21824493 96.96309019 56.375 96 C61.07886152 91.98840489 65.57539176 87.76795159 70.07568359 83.53125 C78.12022414 76 78.12022414 76 81 76 C81.33 75.01 81.66 74.02 82 73 C83.77734375 71.39453125 83.77734375 71.39453125 85.9375 69.8125 C87.00291016 69.01779297 87.00291016 69.01779297 88.08984375 68.20703125 C90 67 90 67 92 67 C92 66.34 92 65.68 92 65 C94.0707119 63.34645342 96.13798877 61.81883711 98.3125 60.3125 C98.94607422 59.86696777 99.57964844 59.42143555 100.23242188 58.96240234 C104.90550488 55.69946323 109.65968551 52.58038307 114.5 49.5703125 C116.33852917 48.41548636 118.14142723 47.2034425 119.921875 45.9609375 C134.19602983 36.86750384 154.94963486 33.90026508 171.625 33.8125 C172.85476563 33.79832031 174.08453125 33.78414062 175.3515625 33.76953125 C179.20860646 34.0131775 182.3784783 34.65422465 186 36 C188 39 188 39 187.875 41.8125 C185.47923793 50.53991898 177.8012608 57.03501658 170.875 62.4375 C164.8190185 67.83522264 160.98544235 74.91840238 157.0625 81.9375 C151.81499751 91.31266535 145.84895675 99.62727208 138 107 C137.21238281 107.79148437 136.42476563 108.58296875 135.61328125 109.3984375 C127.85784058 117.11910041 119.54594757 124.1766649 111 131 C110.1018457 131.72364746 110.1018457 131.72364746 109.18554688 132.46191406 C107.27397642 134.00108804 105.35662648 135.5327615 103.4375 137.0625 C102.8293042 137.55226318 102.2211084 138.04202637 101.59448242 138.54663086 C97.22969589 142 97.22969589 142 95 142 C94.67 142.99 94.34 143.98 94 145 C91.8828125 146.76171875 91.8828125 146.76171875 89.125 148.6875 C88.12339844 149.39390625 87.12179687 150.1003125 86.08984375 150.828125 C85.07019531 151.54484375 84.05054688 152.2615625 83 153 C81.22770136 154.31052068 79.45683777 155.62298457 77.6875 156.9375 C71.30305899 161.57990068 64.67804038 165.79791144 58 170 C57.13503906 170.56976563 56.27007812 171.13953125 55.37890625 171.7265625 C45.24777736 178.21447755 33.74549032 181.23235705 22.1796875 184.10546875 C6.81242176 188.42869216 -2.69049732 211.76542524 -10.16162109 225.06835938 C-14.43005171 232.79133253 -18.41313309 240.62409542 -22 248.6875 C-22.29084473 249.33452881 -22.58168945 249.98155762 -22.88134766 250.64819336 C-24.51090158 254.41511797 -25.49957317 257.92777668 -26 262 C-16.74118552 260.02916588 -7.55020364 255.92640158 -1.015625 248.8515625 C0.57596994 246.30322229 1.7872609 243.75185275 3 241 C3.69561643 239.50743042 4.39519729 238.01670522 5.09765625 236.52734375 C6.27348779 234.0329899 7.44870006 231.53849723 8.61474609 229.03955078 C19.809118 205.2262397 35.51076345 190.8453497 59.9375 181.8125 C76.89310231 175.91206876 95.06430863 173.60240516 112.81542969 171.51904297 C120.89076062 170.51448369 128.30842423 168.64311201 136 166 C137.25345215 165.56989624 137.25345215 165.56989624 138.53222656 165.13110352 C141.41495101 164.12091539 144.2836004 163.07448642 147.15234375 162.02539062 C157.29788021 158.36959676 168.70046249 157.11338207 179 161 C180.30029297 162.80175781 180.30029297 162.80175781 181 165 C180.52783203 167.12792969 180.52783203 167.12792969 179.5078125 169.421875 C178.95105835 170.70058472 178.95105835 170.70058472 178.38305664 172.00512695 C177.96789795 172.91093506 177.55273926 173.81674316 177.125 174.75 C176.49742798 176.1580188 176.49742798 176.1580188 175.85717773 177.59448242 C174.59260058 180.40659395 173.30211781 183.20509895 172 186 C171.47575439 187.13332764 171.47575439 187.13332764 170.94091797 188.28955078 C163.94831075 203.25771801 155.22768983 217.03532275 145 230 C144.2471875 230.969375 143.494375 231.93875 142.71875 232.9375 C138.22849591 238.59645036 133.66453145 243.52241466 128 248 C126.98550781 248.804375 125.97101563 249.60875 124.92578125 250.4375 C121.65249812 253.00682021 118.3334518 255.50925146 115 258 C114.28457031 258.5465625 113.56914062 259.093125 112.83203125 259.65625 C88.99957306 276.78136966 55.04712312 284.90506289 26.06640625 280.38671875 C18.86641336 278.38623113 12.86733335 274.78422088 6.6796875 270.70703125 C0.87028459 267.00628916 -5.32062897 267.45739663 -12 268 C-15.59824016 268.90213758 -18.72091056 270.28008544 -22 272 C-22.80953125 272.42410156 -23.6190625 272.84820312 -24.453125 273.28515625 C-34.35772178 278.87595852 -42.91921637 286.12304274 -50 295 C-51.24716797 296.52753906 -51.24716797 296.52753906 -52.51953125 298.0859375 C-64.27203578 312.63218978 -74.01972195 328.33192574 -82.9375 344.75 C-83.45747559 345.70430908 -83.97745117 346.65861816 -84.51318359 347.6418457 C-88.0513515 354.16702901 -91.4504221 360.74253501 -94.6953125 367.41796875 C-96 370 -96 370 -98 373 C-98.16713569 375.62531524 -98.16713569 375.62531524 -98 378 C-96.68 378.66 -95.36 379.32 -94 380 C-90.56406862 376.80780746 -87.93041449 373.23933506 -85.3125 369.375 C-84.90966797 368.78976562 -84.50683594 368.20453125 -84.09179688 367.6015625 C-81.89281351 364.39287654 -81.89281351 364.39287654 -80 361 C-79.34 361 -78.68 361 -78 361 C-77.64035156 359.9171875 -77.64035156 359.9171875 -77.2734375 358.8125 C-75.81658551 355.59491279 -74.04049184 353.56796475 -71.625 351 C-69.33594149 348.5501715 -67.12273596 346.16205179 -65.09765625 343.48828125 C-53.33595939 329.53632427 -33.35891713 322.66660439 -16.20898438 318.53369141 C-14.1171223 318.02829679 -12.03574495 317.49120789 -9.953125 316.94921875 C11.77254296 311.50609892 34.41268416 309.88717357 56.6875 308.25 C57.56358917 308.18497284 58.43967834 308.11994568 59.34231567 308.052948 C87.06427358 306.02602147 87.06427358 306.02602147 93 309 C94.125 311.25 94.125 311.25 94 314 C91.11616955 318.23562597 87.64008438 321.17974006 83.70703125 324.41015625 C81.89541908 326.09740145 80.58039246 327.83291282 79.1875 329.875 C78.1046875 331.421875 78.1046875 331.421875 77 333 C76.34 333 75.68 333 75 333 C74.74476563 333.72832031 74.48953125 334.45664062 74.2265625 335.20703125 C72.92968387 338.16011477 71.43030953 340.21048353 69.375 342.6875 C68.30185547 343.99460937 68.30185547 343.99460937 67.20703125 345.328125 C66.47871094 346.20984375 65.75039063 347.0915625 65 348 C63.68464266 349.64355063 62.37209411 351.2893535 61.0625 352.9375 C60.07830078 354.16339844 60.07830078 354.16339844 59.07421875 355.4140625 C57.61200779 357.23700724 56.15693074 359.0656855 54.70703125 360.8984375 C50.75387982 365.83822137 47.00119401 370.13544099 42 374 C40.8553125 375.17369141 40.8553125 375.17369141 39.6875 376.37109375 C22.3516137 393.32901741 -5.1344264 399.70187929 -28 405 C-29.21429688 405.28810547 -29.21429688 405.28810547 -30.453125 405.58203125 C-40.2625399 407.82859305 -49.95041645 408.28357243 -60 408.375 C-61.70144165 408.39614868 -61.70144165 408.39614868 -63.43725586 408.41772461 C-73.21098012 408.36082106 -80.89057615 406.29797785 -89.5625 401.8125 C-94.72118892 399.36986991 -99.29967962 397.56378647 -105 399 C-109.61213784 401.08405607 -111.60013422 403.95472585 -113.75 408.375 C-114.08362549 409.0541748 -114.41725098 409.73334961 -114.76098633 410.43310547 C-123.03936312 428.23841369 -127.69190216 448.0363298 -131.5703125 467.21362305 C-132 469 -132 469 -133 471 C-135.10464793 470.69075786 -137.2087053 470.3774944 -139.3125 470.0625 C-141.07013672 469.80146484 -141.07013672 469.80146484 -142.86328125 469.53515625 C-146 469 -146 469 -149 468 C-148.76216797 467.06607422 -148.76216797 467.06607422 -148.51953125 466.11328125 C-146.76135285 459.1485635 -145.05764526 452.17081278 -143.375 445.1875 C-143.15690674 444.29264893 -142.93881348 443.39779785 -142.71411133 442.47583008 C-140.92713736 435.02165534 -139.38017135 427.68587521 -140 420 C-140.59554687 419.28070313 -141.19109375 418.56140625 -141.8046875 417.8203125 C-144.66890372 414.14066106 -145.92568442 410.37386874 -147.4375 406 C-148.05329938 404.29033359 -148.66918505 402.58069826 -149.28515625 400.87109375 C-150.29753428 398.01622085 -151.28269598 395.15722921 -152.24609375 392.28515625 C-155.15580006 383.97890121 -159.51609976 377.83303676 -165 371 C-179.94491647 352.19291411 -182.14956568 320.49924358 -179.71875 297.31787109 C-177.7907021 281.22798272 -173.28138612 266.26687243 -168 251 C-166.88847493 247.73162282 -165.7869772 244.45994588 -164.6875 241.1875 C-164.44233643 240.46699463 -164.19717285 239.74648926 -163.94458008 239.00415039 C-162.20628104 233.83154766 -160.84397347 228.63309617 -159.73828125 223.28515625 C-158.91953443 220.75093991 -158.10347819 219.60947952 -156 218 C-153.9375 218 -153.9375 218 -152 219 C-149.74026031 223.41597986 -149.18095474 228.15377648 -148.4375 233 C-148.18687427 234.58344053 -147.93559008 236.16677701 -147.68359375 237.75 C-147.56741699 238.48605469 -147.45124023 239.22210938 -147.33154297 239.98046875 C-146.94533694 242.33296966 -146.49371843 244.66776816 -146 247 C-145.34 247 -144.68 247 -144 247 C-136.9676532 259.33060452 -131.75135055 271.32191224 -128 285 C-127.54487216 286.58350629 -127.0891428 288.16683981 -126.6328125 289.75 C-122.13641611 305.69713179 -117.36999257 324.05136206 -120.50170898 340.66088867 C-121.10094463 344.67644278 -121.15409171 348.57180991 -121.17578125 352.625 C-121.19900221 354.31902253 -121.22312043 356.01303296 -121.24804688 357.70703125 C-121.28289976 360.34171411 -121.31237634 362.97595626 -121.32592773 365.61083984 C-121.3875666 375.66461246 -121.83908533 384.52989766 -125.12475586 394.11572266 C-126.37187827 398.2254867 -126.29373933 401.74077971 -126 406 C-123.79297044 403.94166119 -122.26019191 401.96884891 -120.80078125 399.33203125 C-120.40028564 398.61184814 -119.99979004 397.89166504 -119.5871582 397.1496582 C-119.166521 396.378396 -118.74588379 395.60713379 -118.3125 394.8125 C-117.87188232 394.01094482 -117.43126465 393.20938965 -116.97729492 392.38354492 C-112.7773854 384.68965038 -108.80892091 376.89396829 -105 369 C-104.42765625 367.8140625 -103.8553125 366.628125 -103.265625 365.40625 C-99.39321434 357.23510824 -95.80331894 348.95650481 -92.2746582 340.6315918 C-90.19742376 335.74222491 -88.04503806 330.91567071 -85.75 326.125 C-78.10088999 309.69752419 -73.90142215 292.49630496 -80.12109375 274.8125 C-83.2397996 268.59275802 -87.60457606 264.08976401 -92.61328125 259.328125 C-98.06527006 254.00998207 -102.00570106 247.61082763 -106.0078125 241.171875 C-107.47125955 238.84183773 -108.96157325 236.5505055 -110.4921875 234.265625 C-129.14287699 206.06908829 -130.06309295 170.51408292 -123.52929688 138.16943359 C-118.7363474 116.04356535 -110.96585709 87.37689079 -93 72 C-89.26292757 69.76358433 -86.35360644 69.6042176 -82 70 C-79.15513273 71.56958194 -78.93631843 73.19977144 -77.9453125 76.30859375 C-76.53404602 82.16025066 -76.74884521 88.07602573 -76.6875 94.0625 C-76.28057519 110.78993875 -72.70996564 125.83303836 -68.29858398 141.88793945 C-65.0833466 153.59215146 -62.49241213 164.96055428 -61 177 C-60.83371094 178.25989746 -60.66742188 179.51979492 -60.49609375 180.81787109 C-53.34909718 235.01338726 -53.34909718 235.01338726 -65 253 C-69.54696616 260.68576057 -73.38514571 267.36535279 -71.4609375 276.58203125 C-70.36051681 280.02223533 -69.58052249 282.41947751 -67 285 C-61.1770418 284.88802003 -58.01309929 282.97233554 -54 279 C-51.70659071 276.34147604 -49.59534355 273.56614916 -47.5 270.75 C-46.92612549 269.9856665 -46.35225098 269.22133301 -45.76098633 268.43383789 C-44.1641527 266.296292 -42.57980083 264.15014944 -41 262 C-40.37480469 261.15824219 -39.74960938 260.31648438 -39.10546875 259.44921875 C-27.96099375 243.63818672 -18.59548681 222.55914663 -20 203 C-21.24972298 197.23856527 -24.8851968 193.93192306 -29 190 C-29 189.34 -29 188.68 -29 188 C-29.99 187.67 -30.98 187.34 -32 187 C-33.60713405 184.5200778 -35.01301498 182.11116146 -36.375 179.5 C-36.77275635 178.73824463 -37.1705127 177.97648926 -37.58032227 177.19165039 C-46.40198452 159.68686717 -48.39133109 140.99953303 -48.3125 121.625 C-48.31167419 120.93377045 -48.31084839 120.24254089 -48.30999756 119.53036499 C-48.27954142 108.24379913 -47.64228392 97.05105031 -46.625 85.8125 C-46.56196686 85.11610413 -46.49893372 84.41970825 -46.43399048 83.70220947 C-43.9730572 57.13831635 -43.9730572 57.13831635 -40.4375 47.6875 C-40.18355469 46.98947266 -39.92960938 46.29144531 -39.66796875 45.57226562 C-35.5057669 34.5875867 -29.7535188 21.92290196 -22 13 C-21.34 13 -20.68 13 -20 13 C-19.6596875 12.195625 -19.6596875 12.195625 -19.3125 11.375 C-15.41686926 4.32576342 -8.77821362 -3.31621404 0 0 Z " fill="#72C599" transform="translate(283,65)"/>
<path d="M0 0 C5.57894737 3.15789474 5.57894737 3.15789474 7 6 C6.94921875 7.98828125 6.94921875 7.98828125 6.6875 10.3125 C6.60886719 11.07175781 6.53023437 11.83101563 6.44921875 12.61328125 C6 15 6 15 5.0480957 17.18188477 C3.78907621 20.56713099 3.2666808 23.91852053 2.78125 27.4765625 C2.67834152 28.19598526 2.57543304 28.91540802 2.46940613 29.65663147 C2.13954951 31.97853147 1.81936132 34.30163514 1.5 36.625 C1.27726253 38.21332038 1.05436187 39.80161789 0.83129883 41.38989258 C-0.67920755 52.23697208 -2.02411138 63.09043921 -3 74 C-2.02728149 74.029729 -2.02728149 74.029729 -1.03491211 74.06005859 C35.1383699 75.21939707 35.1383699 75.21939707 40 80 C40.5 82.9375 40.5 82.9375 40 86 C32.79905438 95.13966175 14.086163 95.26468139 3.27905273 96.78808594 C0.53032167 97.04367229 -2.23941186 97 -5 97 C-5 105.25 -5 113.5 -5 122 C3.47632199 119.5028358 3.47632199 119.5028358 11.27734375 116.07421875 C12.36853516 115.52443359 13.45972656 114.97464844 14.58398438 114.40820312 C15.69064453 113.84037109 16.79730469 113.27253906 17.9375 112.6875 C19.04029297 112.13126953 20.14308594 111.57503906 21.27929688 111.00195312 C23.4674062 109.89305288 25.649391 108.77197473 27.82470703 107.63818359 C29.92744613 106.55334741 32.04859339 105.50341625 34.18701172 104.49072266 C40.0364581 101.72586021 40.0364581 101.72586021 43.703125 96.625 C43.97382812 94.830625 43.97382812 94.830625 44.25 93 C44.50971967 91.670691 44.78222744 90.34382697 45.06640625 89.01953125 C45.2070752 88.35131348 45.34774414 87.6830957 45.49267578 86.99462891 C48.97841109 73.28988518 59.20726661 61.4271542 71 54 C78.43863694 50.02239553 86.47009621 46.82485886 95 48 C102.9620285 50.52502229 111.58303009 54.60004812 116.02734375 61.9453125 C116.50880859 62.96238281 116.50880859 62.96238281 117 64 C117.33128906 64.69867188 117.66257812 65.39734375 118.00390625 66.1171875 C120.73587732 73.00224463 121.41908912 80.10360067 118.86328125 87.12109375 C112.7477635 99.97812713 104.53424456 107.17292116 91.26171875 112.23828125 C82.2122288 115.28603693 74.93494456 113.75932111 66 111 C67.12697043 115.96911366 67.12697043 115.96911366 70 120 C89.90670921 122.34196579 112.60549883 108.03336562 130 100 C129.87882813 99.2471875 129.75765625 98.494375 129.6328125 97.71875 C129.27566744 95.4549998 128.93180465 93.18913379 128.59765625 90.921875 C128.18729647 88.22905655 127.74077161 85.56681326 127.24609375 82.890625 C126.01740979 75.77163349 125.07062312 69.8617021 129.41796875 63.57421875 C131.69397334 61.30945369 133.86502379 60.51034497 137 60 C142.22545137 64.45700264 144.90098264 69.94790239 148 76 C148.37253906 76.67160156 148.74507812 77.34320313 149.12890625 78.03515625 C154.75244534 88.42216374 157.04449008 100.63386344 160 112 C166.34347786 100.4551455 172.03068687 88.7710179 177.15551758 76.63110352 C179.38571472 71.40639293 181.72588563 66.56939064 184.84594727 61.82104492 C187.38040732 57.8217774 189.23369622 53.44557567 191.25390625 49.171875 C192.90982712 46.16380398 194.54266989 44.34152307 197 42 C197.45975313 66.72293008 195.67211312 87.69156083 187.88330078 111.31884766 C187.32430191 113.01562091 186.77459022 114.71550639 186.23779297 116.41943359 C183.21045631 126.00079808 179.51476971 133.05660121 172 140 C171.23042969 140.75152344 170.46085938 141.50304687 169.66796875 142.27734375 C164.8351904 146.83019968 160.28293531 151 153.3125 151 C147.49171704 148.48290467 145.0982574 141.55705675 142.5625 136.125 C142.17070557 135.29379639 141.77891113 134.46259277 141.37524414 133.60620117 C137.974082 126.24018336 135.31239015 118.77381413 133 111 C132.55269531 111.51949219 132.10539063 112.03898437 131.64453125 112.57421875 C123.58552467 121.8704289 115.75718264 129.51232849 104.75 135.125 C103.90518066 135.55731934 103.06036133 135.98963867 102.18994141 136.43505859 C99.80168855 137.64134423 97.4039032 138.82528053 95 140 C93.98164062 140.5053125 92.96328125 141.010625 91.9140625 141.53125 C84.24049541 144.83678659 75.2107686 145.546459 67 144 C62.78274901 142.22588031 59.50550305 139.90999728 56 137 C55.39800781 136.59523438 54.79601562 136.19046875 54.17578125 135.7734375 C48.02182238 131.46411617 45.64280428 123.72713816 43 117 C35.42260891 122.15464133 35.42260891 122.15464133 28.8125 128.4375 C17.54860246 140.18528813 -1.86739896 146.63653927 -17.6875 147.375 C-20.8700323 147.29922542 -21.77060818 147.16469156 -24.4375 145.25 C-29.02241566 135.71337543 -28.3928884 124.14908305 -28.625 113.75 C-28.66329936 112.3111774 -28.70235739 110.87237479 -28.7421875 109.43359375 C-28.83684361 105.95591505 -28.92133063 102.47808148 -29 99 C-30.09957031 99.02320313 -31.19914063 99.04640625 -32.33203125 99.0703125 C-45.52093286 99.27061997 -55.86136765 98.86121584 -67 91 C-68 90 -68 90 -68.1875 86.25 C-68.15615249 82.76415714 -67.57760458 80.15520917 -66 77 C-58.20243583 75.80423951 -50.37181476 75.66396719 -42.5 75.4375 C-41.09113527 75.39422263 -39.68228093 75.35060569 -38.2734375 75.30664062 C-34.8490454 75.20109429 -31.42458708 75.09898202 -28 75 C-27.96036133 74.34854004 -27.92072266 73.69708008 -27.87988281 73.02587891 C-24.16561351 14.20293441 -24.16561351 14.20293441 -14.75 4.73828125 C-12.54301984 3.22098239 -10.45808085 2.04794409 -8 1 C-5.13391871 -0.43304064 -3.18699217 -0.30644155 0 0 Z M76 76 C72.65290156 79.70248534 69.58991786 83.23024641 68 88 C69.21690541 89.4284032 69.21690541 89.4284032 72.8125 89.375 C79.02175821 89.30534486 84.67958346 87.11833386 90 84 C92.47287664 81.31648651 93.84468064 79.46595809 95 76 C92.76869496 72.93195558 89.83090303 71.82537208 86.1796875 71.04296875 C81.88898924 70.95838509 79.08348375 73.21749375 76 76 Z " fill="#000000" transform="translate(665,248)"/>
<path d="M0 0 C6.35856771 5.82868707 8.97450134 14.03160507 9.4375 22.5 C9.0509859 31.64750027 4.25300582 39.56765367 -2 46 C-11.07018977 53.71347231 -21.93709885 58.77825169 -34 58 C-37.71041979 57.13874197 -41.35600977 56.10703501 -45 55 C-44.14388846 60.08706341 -44.14388846 60.08706341 -41 64 C-21.13326718 67.05642043 3.75518962 51.34604605 21 43 C20.39986241 40.37401725 19.79602179 37.74904463 19.1875 35.125 C19.00735352 34.34793701 18.82720703 33.57087402 18.64160156 32.77026367 C17.65145645 28.56302319 16.57207047 24.43052813 15.25 20.3125 C14.1550711 16.74944409 13.37466705 13.75199768 14 10 C16.23206431 7.15219381 17.54992999 6.15002334 21 5 C26.85813495 4.60945767 30.74042244 5.06677405 36 8 C43.27567454 14.44416887 44.63103963 26.84958065 46 36 C46.79921875 35.16597656 47.5984375 34.33195312 48.421875 33.47265625 C72.17267572 8.99992452 72.17267572 8.99992452 86.875 8.5625 C92.13521768 8.91817308 96.02617265 10.24446107 99.68359375 14.234375 C105.97794064 22.67664441 108.40181517 32.33627603 110.82421875 42.38671875 C111.7826908 46.33595917 113.01104922 50.13774574 114.38232422 53.96191406 C115.87760427 58.89574722 115.54493099 63.33894778 113.4375 68.0625 C110.25130566 73.75053003 106.56527942 78.17803612 100.26953125 80.1953125 C99.19058594 80.46085937 98.11164063 80.72640625 97 81 C89.69886279 68.51741057 86.54743738 56.15872594 84 42 C83.71527832 40.44273193 83.71527832 40.44273193 83.42480469 38.85400391 C82.94677294 36.23654988 82.47194375 33.61855733 82 31 C77.97430292 31 76.72303187 32.43281796 73.82421875 35.0703125 C67.62721694 41.62559921 64.79202257 49.88388519 61.67578125 58.17041016 C57.91486379 68.05725182 53.4509834 79.20533406 45 86 C41.4375 87.3125 41.4375 87.3125 38 87 C34.01669653 84.96929627 32.60471204 83.43908823 30.87890625 79.33203125 C29.78690992 75.91157581 28.8708737 72.48349478 28 69 C27.62284122 67.53113557 27.24522143 66.06238944 26.8671875 64.59375 C25.88347229 60.73570214 24.93405213 56.87035431 24 53 C23.41089844 53.7528125 22.82179688 54.505625 22.21484375 55.28125 C19.86883944 58.16100133 17.36470597 60.71475399 14.71484375 63.30859375 C13.31441273 64.68988448 11.96211129 66.11982729 10.625 67.5625 C2.67471986 74.94490299 -7.26494467 79.444136 -17 84 C-18.44246094 84.69222656 -18.44246094 84.69222656 -19.9140625 85.3984375 C-27.85750847 88.78220149 -38.17781177 90.06889079 -46.484375 87.1171875 C-48.50766295 85.89512158 -50.20598672 84.53661137 -52 83 C-53.13695312 82.23816406 -53.13695312 82.23816406 -54.296875 81.4609375 C-60.36555136 77.27632733 -63.3687909 72.83691681 -66 66 C-66.36480469 65.11570312 -66.72960937 64.23140625 -67.10546875 63.3203125 C-70.31489514 51.40759446 -68.78267874 37.20153705 -64 26 C-63.649375 25.1234375 -63.29875 24.246875 -62.9375 23.34375 C-59.87688422 16.4573645 -55.28864476 11.29784241 -50 6 C-49.43410156 5.4225 -48.86820313 4.845 -48.28515625 4.25 C-33.59028947 -9.54664754 -16.3626934 -10.99368463 0 0 Z M-34.140625 19.07421875 C-37.88591814 22.95327236 -41.28101437 26.84304311 -43 32 C-41.76946545 33.44685009 -41.76946545 33.44685009 -38.0625 33.3125 C-31.14004576 33.22417522 -25.29575735 30.91313112 -20 26.5 C-18.29345435 24.36681793 -17.02653469 22.51967607 -16 20 C-18.85101147 16.77125199 -21.41766514 15.77939992 -25.59375 14.97265625 C-29.37610122 15.01563751 -31.3543911 16.65019526 -34.140625 19.07421875 Z " fill="#000000" transform="translate(935,304)"/>
<path d="M0 0 C4.20950546 3.16959379 7.96941266 6.02210384 10 11 C10.375 14 10.375 14 10 17 C7.97878848 19.5405506 6.59625652 20.81447746 3.4765625 21.78515625 C-2.69890233 22.38578365 -7.07978935 21.85970062 -12.875 19.5625 C-27.78294857 13.68768822 -44.08308422 17.53946011 -58.4140625 23.62109375 C-61.23713293 25.12644702 -63.51238748 27.00057082 -66 29 C-66.66 29 -67.32 29 -68 29 C-70.35930537 32.68641465 -70.43072427 35.69275735 -70 40 C-68.63755296 44.61334916 -66.76699652 47.98370403 -62.5 50.375 C-51.71663788 54.68007084 -39.59577145 54.5159321 -28.14428711 55.02905273 C6.29731634 56.61841116 6.29731634 56.61841116 17.56640625 67.29296875 C22.94071278 73.69234736 24.3948012 80.96112943 24.2734375 89.12890625 C22.97194879 102.79453771 16.07785564 114.22057183 5.7109375 122.9375 C-8.32825041 133.61861127 -24.38111004 138.90916764 -42 137 C-52.46450438 135.12175562 -61.27017773 130.6246535 -68.16796875 122.421875 C-73.12215927 115.27149693 -75.63979771 107.75097131 -74.8125 99 C-74 96 -74 96 -72.9375 94.0625 C-69.67129142 92.27135336 -66.55775464 92.33452071 -63 93 C-58.0905175 95.08749649 -54.32723523 98.5517178 -50.4375 102.125 C-44.37354736 107.62920317 -38.27585734 110.17190208 -30 110 C-16.65574934 108.4665531 -4.10820449 103.70634593 4.546875 93.11328125 C6.74234622 89.92040509 8 87.92717541 8 84 C-3.17648991 77.37689487 -21.13130754 79.81798991 -33.625 80 C-70.90714677 80.54106778 -70.90714677 80.54106778 -81.75 70.4375 C-86.82229826 63.4268592 -90.71478926 55.69892768 -91 47 C-91.03738281 46.31808594 -91.07476562 45.63617188 -91.11328125 44.93359375 C-91.57709161 31.28780464 -87.71609664 17.9760738 -78.5625 7.625 C-70.4396741 0.2622046 -58.59416797 -4.63050957 -48 -7 C-47.23558594 -7.18175781 -46.47117187 -7.36351562 -45.68359375 -7.55078125 C-31.25865215 -9.96543669 -12.28948577 -8.31937966 0 0 Z " fill="#000000" transform="translate(571,273)"/>
<path d="M0 0 C0.33 0 0.66 0 1 0 C1.01981934 0.91773193 1.03963867 1.83546387 1.06005859 2.78100586 C1.98159598 48.40385122 1.98159598 48.40385122 7.65625 93.61962891 C9.58003858 104.25691557 11.22006321 114.91962691 12.73486328 125.62255859 C13.12762543 128.3935226 13.52644156 131.16357085 13.92578125 133.93359375 C15.16633015 142.60580409 16.38790654 151.25544493 17 160 C14.68187684 156.16100524 14.06898597 151.96824923 13.265625 147.625 C13.10706528 146.79622849 12.94850555 145.96745697 12.78514099 145.11357117 C12.44514586 143.33451485 12.10769928 141.55496994 11.77255249 139.7749939 C10.89300414 135.10418791 9.99592599 130.43676776 9.09765625 125.76953125 C8.9193074 124.84139114 8.74095856 123.91325104 8.5572052 122.95698547 C7.0527487 115.17280381 5.39883877 107.42895629 3.6875 99.6875 C1.96967494 91.84051151 0.38844854 84.00647302 -0.8125 76.0625 C-0.98036011 74.95491333 -0.98036011 74.95491333 -1.15161133 73.82495117 C-2.8100972 62.06972 -3.18654433 50.31463906 -3.18530273 38.46240234 C-3.18749069 36.13490525 -3.20573315 33.80788278 -3.22460938 31.48046875 C-3.30472529 9.91417588 -3.30472529 9.91417588 0 0 Z " fill="#067980" transform="translate(126,304)"/>
<path d="M0 0 C0.99 0.495 0.99 0.495 2 1 C-16.36200228 18.89874076 -38.47440505 33.9178428 -61.06738281 45.96630859 C-62.33705884 46.64541525 -63.60223599 47.33301408 -64.86230469 48.02978516 C-81.72812048 57.34474047 -102.10480364 65.60652287 -121.625 65.125 C-122.34300781 65.11597656 -123.06101562 65.10695313 -123.80078125 65.09765625 C-125.53400579 65.07454659 -127.26705349 65.03870104 -129 65 C-125.11122191 62.71430863 -120.83432947 61.87524003 -116.5 60.8125 C-89.89505575 53.9866674 -64.64059232 42.92655177 -41 29 C-40.30116699 28.58927246 -39.60233398 28.17854492 -38.88232422 27.75537109 C-25.19477912 19.63053856 -11.96869557 10.50602975 0 0 Z " fill="#067980" transform="translate(429,259)"/>
<path d="M0 0 C0 3 0 3 -2.17578125 5.42578125 C-3.21024856 6.39995019 -4.25694254 7.36122391 -5.3125 8.3125 C-5.88935547 8.83593994 -6.46621094 9.35937988 -7.06054688 9.89868164 C-33.88481834 33.71400014 -64.62303695 48.88507625 -98 61 C-99.18174805 61.43054688 -100.36349609 61.86109375 -101.58105469 62.3046875 C-112.22299109 66.15816349 -122.86134141 69.96823878 -133.875 72.625 C-134.55272461 72.78991943 -135.23044922 72.95483887 -135.92871094 73.12475586 C-139.33643516 73.8773467 -141.67588802 73.97640718 -145 73 C-144.10608299 72.69505112 -144.10608299 72.69505112 -143.19410706 72.38394165 C-136.84553893 70.21674448 -130.50021508 68.0402303 -124.15649414 65.85888672 C-121.80603522 65.05192935 -119.45482666 64.24715137 -117.1027832 63.44482422 C-104.47207802 59.13453861 -91.91689261 54.6947363 -79.515625 49.7578125 C-78.52885269 49.36639069 -77.54208038 48.97496887 -76.52540588 48.57168579 C-57.82563222 41.01229794 -41.14912133 31.00803323 -25 19 C-24.39591309 18.55495117 -23.79182617 18.10990234 -23.16943359 17.65136719 C-19.75382193 15.13417709 -16.37413297 12.5723588 -13 10 C-11.88241083 9.16155888 -10.76388393 8.32436656 -9.64453125 7.48828125 C-9.08765625 7.07231689 -8.53078125 6.65635254 -7.95703125 6.2277832 C-7.14298828 5.62003052 -7.14298828 5.62003052 -6.3125 5 C-3.03238651 2.64747777 -3.03238651 2.64747777 0 0 Z " fill="#097B81" transform="translate(353,385)"/>
<path d="M0 0 C1.3221438 3.81194998 0.84827176 7.39560178 0.44140625 11.32421875 C0.29992078 12.82576552 0.15933581 14.32739735 0.01953125 15.82910156 C-0.09334229 17.01542175 -0.09334229 17.01542175 -0.20849609 18.22570801 C-4.38087506 63.07878185 1.56107382 102.89723409 11.93432617 146.57641602 C12.19625259 147.68655563 12.19625259 147.68655563 12.46347046 148.81912231 C12.82505081 150.288869 13.21009462 151.75301663 13.61685181 153.21090698 C14.63489473 156.90387459 15.13606318 159.34274208 14 163 C8.87098892 150.3241802 5.51364395 137.53355346 2.50305176 124.21905518 C2.15896871 122.70124063 1.81173245 121.18413838 1.46179199 119.66766357 C-4.72113992 92.84534818 -7.3666761 67.50620664 -6 40 C-5.94489258 38.81889648 -5.88978516 37.63779297 -5.83300781 36.42089844 C-5.17152293 23.97504121 -3.06920077 12.06821662 0 0 Z " fill="#097B81" transform="translate(186,158)"/>
<path d="M0 0 C0.99 0.495 0.99 0.495 2 1 C-9.04015738 10.60478423 -20.08267746 20.20445452 -31.4375 29.4375 C-35.70745249 32.91072666 -39.89491768 36.4680582 -44.0625 40.0625 C-48.77762003 44.12778383 -53.5551085 48.08211361 -58.44140625 51.94140625 C-61.50724667 54.4081206 -64.50437387 56.94886096 -67.5 59.5 C-72.00678796 63.33441477 -76.56037979 67.09099643 -81.19921875 70.765625 C-83.44218693 72.55499431 -85.67165477 74.35776051 -87.89453125 76.171875 C-88.59151123 76.7405127 -89.28849121 77.30915039 -90.0065918 77.89501953 C-91.37752968 79.01458457 -92.74754641 80.13527894 -94.11645508 81.25732422 C-98.65603598 84.96136811 -103.28771357 88.51849968 -108 92 C-108.66 91.67 -109.32 91.34 -110 91 C-105.52685902 86.41978915 -100.97622306 82.0135514 -96.12109375 77.83984375 C-93.77508942 75.80491181 -91.4826355 73.71709033 -89.1875 71.625 C-84.89391368 67.74966257 -80.46911998 64.0777869 -75.97265625 60.44140625 C-72.66249043 57.72280752 -69.42494833 54.92926547 -66.1875 52.125 C-60.96749869 47.61372883 -55.6289626 43.29806374 -50.17602539 39.07250977 C-46.23185973 36.00421406 -42.41016301 32.82408378 -38.625 29.5625 C-32.02912673 23.90457201 -25.10689845 18.72886069 -18.11865234 13.56884766 C-14.39869823 10.81424692 -10.70079386 8.03025608 -7 5.25 C-5.64592671 4.23425051 -4.29176901 3.21861353 -2.9375 2.203125 C-1.968125 1.47609375 -0.99875 0.7490625 0 0 Z " fill="#087A80" transform="translate(428,129)"/>
<path d="M0 0 C0.33 0 0.66 0 1 0 C0.54940169 6.65614106 -0.28725327 13.2236029 -1.3046875 19.8125 C-1.42888565 20.61796768 -1.5530838 21.42343536 -1.68104553 22.25331116 C-1.94357243 23.95364785 -2.20619387 25.65396995 -2.46890259 27.35427856 C-4.70026813 41.89160744 -6.61758172 56.40147479 -7.8125 71.0625 C-7.89791046 72.10821167 -7.89791046 72.10821167 -7.98504639 73.17504883 C-8.35484406 77.78129572 -8.68465512 82.38966935 -9 87 C-9.07148254 88.02125473 -9.07148254 88.02125473 -9.14440918 89.06314087 C-9.72397446 97.39797465 -10.1690856 105.70355576 -10.125 114.0625 C-10.12306641 114.98498535 -10.12113281 115.9074707 -10.11914062 116.85791016 C-10.07069477 124.60251877 -9.67296536 132.28493289 -9 140 C-14.92152721 131.11770919 -13.43802378 116.85885488 -13.4375 106.4375 C-13.43923218 105.60950897 -13.44096436 104.78151794 -13.44274902 103.92843628 C-13.41151213 69.27233722 -8.5755012 33.57217491 0 0 Z " fill="#067980" transform="translate(271,86)"/>
<path d="M0 0 C0.33 0 0.66 0 1 0 C1.33 2.31 1.66 4.62 2 7 C2.33 7 2.66 7 3 7 C2.99476318 7.92111572 2.98952637 8.84223145 2.98413086 9.79125977 C2.96684909 13.28589533 2.95443542 16.78048398 2.94506836 20.27514648 C2.94011162 21.77320076 2.93334426 23.27125039 2.92456055 24.76928711 C2.86676697 34.89676176 3.18049582 44.90263673 4 55 C-2.40115633 45.3982655 -0.23251916 29.77718892 -0.125 18.6875 C-0.11494396 16.8678435 -0.10582278 15.04818159 -0.09765625 13.22851562 C-0.0758648 8.81887396 -0.04148164 4.40949858 0 0 Z " fill="#158383" transform="translate(258,171)"/>
<path d="M0 0 C0.33 0 0.66 0 1 0 C0.36953002 8.29925838 -0.75671673 16.46983217 -2.0625 24.6875 C-2.24876953 25.87794922 -2.43503906 27.06839844 -2.62695312 28.29492188 C-3.08151433 31.19712036 -3.53924983 34.0987788 -4 37 C-5.485 37.495 -5.485 37.495 -7 38 C-5.75770289 25.05786 -3.05464588 12.62354229 0 0 Z " fill="#158383" transform="translate(271,86)"/>
<path d="M0 0 C0.33 0 0.66 0 1 0 C1 6.93 1 13.86 1 21 C0.67 21 0.34 21 0 21 C-0.22786458 19.046875 -0.45572917 17.09375 -0.68359375 15.140625 C-0.94597953 13.00624712 -0.94597953 13.00624712 -1.59375 11.03125 C-2.10050959 8.49745203 -1.68650101 6.74600405 -1.0625 4.25 C-0.86785156 3.45078125 -0.67320313 2.6515625 -0.47265625 1.828125 C-0.31667969 1.22484375 -0.16070312 0.6215625 0 0 Z " fill="#1A8784" transform="translate(126,304)"/>
<path d="M0 0 C0 3 0 3 -1.96875 5.04296875 C-2.8040625 5.75066406 -3.639375 6.45835937 -4.5 7.1875 C-5.3353125 7.90292969 -6.170625 8.61835938 -7.03125 9.35546875 C-7.6809375 9.89816406 -8.330625 10.44085938 -9 11 C-9.33 10.01 -9.66 9.02 -10 8 C-6.7 5.36 -3.4 2.72 0 0 Z " fill="#178584" transform="translate(353,385)"/>
<path d="M0 0 C0.66 0.33 1.32 0.66 2 1 C-1.96 4.465 -1.96 4.465 -6 8 C-6.66 7.34 -7.32 6.68 -8 6 C-5.36 4.02 -2.72 2.04 0 0 Z " fill="#118082" transform="translate(428,129)"/>
</svg>
