<?xml version="1.0" encoding="UTF-8"?>
<!DOCTYPE svg PUBLIC "-//W3C//DTD SVG 1.1//EN" "http://www.w3.org/Graphics/SVG/1.1/DTD/svg11.dtd">
<svg xmlns="http://www.w3.org/2000/svg" version="1.1" width="2400px" height="1200px" style="shape-rendering:geometricPrecision; text-rendering:geometricPrecision; image-rendering:optimizeQuality; fill-rule:evenodd; clip-rule:evenodd" xmlns:xlink="http://www.w3.org/1999/xlink">
<g><path style="opacity:1" fill="#006a3c" d="M 554.5,287.5 C 552.156,287.506 550.822,288.673 550.5,291C 551.077,293.137 551.41,295.304 551.5,297.5C 561.339,333.554 562.005,369.887 553.5,406.5C 550.433,419.837 545.1,432.337 537.5,444C 536.266,449.952 534.1,455.452 531,460.5C 528.773,461.955 527.273,463.955 526.5,466.5C 525.504,466.414 524.671,466.748 524,467.5C 523.366,470.555 523.532,473.555 524.5,476.5C 522.485,480.177 519.485,482.844 515.5,484.5C 514.702,486.078 514.202,487.744 514,489.5C 497.637,508.525 481.304,527.525 465,546.5C 462.729,550.656 460.229,554.656 457.5,558.5C 456.782,562.809 455.782,566.976 454.5,571C 455.875,578.866 458.875,586.033 463.5,592.5C 462.152,593.186 460.985,594.186 460,595.5C 458.915,594.707 457.748,594.04 456.5,593.5C 455.19,588.387 453.023,583.721 450,579.5C 449.829,574.136 449.329,568.802 448.5,563.5C 447.522,563.977 446.689,564.643 446,565.5C 443,571.167 440,576.833 437,582.5C 434.982,584.35 433.149,586.35 431.5,588.5C 424.606,600.676 419.773,613.676 417,627.5C 407.624,648.737 403.291,671.07 404,694.5C 400.546,698.507 400.712,702.174 404.5,705.5C 404.5,707.833 404.5,710.167 404.5,712.5C 401.752,712.402 401.086,713.402 402.5,715.5C 400.173,713.502 398.173,711.168 396.5,708.5C 398.789,707.942 400.789,706.776 402.5,705C 398.245,700.278 394.079,695.444 390,690.5C 389.023,688.26 388.523,685.927 388.5,683.5C 386.473,683.662 384.473,683.495 382.5,683C 376.511,677.346 371.677,670.846 368,663.5C 366.598,661.367 364.765,659.7 362.5,658.5C 361.177,654.593 360.177,650.593 359.5,646.5C 355.802,648.195 352.968,647.195 351,643.5C 350.399,642.035 350.899,641.035 352.5,640.5C 354.8,644.484 357.133,644.484 359.5,640.5C 359.833,639.5 360.167,638.5 360.5,637.5C 359.796,635.465 359.129,633.465 358.5,631.5C 351.842,630.164 349.175,632.83 350.5,639.5C 349.127,639.657 347.793,639.49 346.5,639C 343.974,635.974 341.64,632.807 339.5,629.5C 341.364,621.679 342.364,622.012 342.5,630.5C 344.5,630.5 346.5,630.5 348.5,630.5C 346.902,624.64 346.235,618.64 346.5,612.5C 345.167,612.5 343.833,612.5 342.5,612.5C 342.5,611.167 342.5,609.833 342.5,608.5C 340.508,608.328 338.842,608.995 337.5,610.5C 336.72,607.932 335.22,605.932 333,604.5C 331.607,605.615 330.107,606.115 328.5,606C 325.584,602.928 322.918,599.762 320.5,596.5C 322.174,594.651 323.174,592.484 323.5,590C 321.473,585.06 320.14,579.893 319.5,574.5C 317.5,574.5 315.5,574.5 313.5,574.5C 313.592,578.071 311.926,579.238 308.5,578C 306.983,573.624 304.983,569.458 302.5,565.5C 304.756,562.564 306.089,559.23 306.5,555.5C 306.062,552.473 305.895,549.473 306,546.5C 307.205,545.929 308.372,545.262 309.5,544.5C 311.241,538.091 313.907,532.091 317.5,526.5C 322.564,525.764 325.397,522.764 326,517.5C 329.719,514.903 332.886,511.737 335.5,508C 336.448,507.517 337.448,507.351 338.5,507.5C 338.737,501.558 341.571,497.558 347,495.5C 347.775,491.597 349.775,488.597 353,486.5C 355.235,480.599 359.402,476.766 365.5,475C 367.404,469.506 370.737,465.173 375.5,462C 375.167,461.667 374.833,461.333 374.5,461C 377.306,456.694 380.306,452.527 383.5,448.5C 381.604,447.725 379.937,446.725 378.5,445.5C 379.167,444.833 379.833,444.167 380.5,443.5C 383.766,442.959 387.1,442.793 390.5,443C 391.685,441.647 393.019,440.48 394.5,439.5C 396.237,435.79 398.071,432.123 400,428.5C 408.122,420.056 415.789,411.389 423,402.5C 423.49,401.207 423.657,399.873 423.5,398.5C 428.905,397.597 432.239,394.43 433.5,389C 435.025,387.991 436.692,387.491 438.5,387.5C 439.097,382.216 441.764,378.216 446.5,375.5C 451.56,368.661 457.06,362.328 463,356.5C 463.561,354.275 464.561,352.275 466,350.5C 471.494,346.515 475.828,341.515 479,335.5C 484.068,332.702 486.568,328.369 486.5,322.5C 486.145,321.478 485.478,320.811 484.5,320.5C 488.281,313.494 492.948,307.161 498.5,301.5C 513.996,283.303 532.663,278.636 554.5,287.5 Z"/></g>
<g><path style="opacity:0.161" fill="#44ab96" d="M 554.5,287.5 C 566.999,296.327 576.999,307.327 584.5,320.5C 585.822,320.33 586.989,320.663 588,321.5C 591.909,327.197 596.076,332.53 600.5,337.5C 599.635,337.564 598.635,337.897 597.5,338.5C 593.071,333.335 588.404,328.335 583.5,323.5C 580.335,319.176 577.668,314.51 575.5,309.5C 574.675,308.614 573.675,308.281 572.5,308.5C 572.5,307.5 572.5,306.5 572.5,305.5C 571.448,305.649 570.448,305.483 569.5,305C 564.92,299.914 559.92,295.414 554.5,291.5C 553.287,291.747 552.62,292.414 552.5,293.5C 552.629,295.216 552.962,296.883 553.5,298.5C 552.833,298.167 552.167,297.833 551.5,297.5C 551.41,295.304 551.077,293.137 550.5,291C 550.822,288.673 552.156,287.506 554.5,287.5 Z"/></g>
<g><path style="opacity:1" fill="#45d8c7" d="M 552.5,293.5 C 555.326,296.415 558.66,298.582 562.5,300C 568.279,306.42 573.779,312.92 579,319.5C 581.714,326.451 579.547,329.118 572.5,327.5C 571.741,332.3 570.741,336.967 569.5,341.5C 570.822,341.67 571.989,341.337 573,340.5C 573.167,341 573.333,341.5 573.5,342C 571.549,346.764 571.049,351.598 572,356.5C 569.873,356.548 567.706,356.715 565.5,357C 564.883,354.723 564.216,352.556 563.5,350.5C 563.665,347.482 563.498,344.482 563,341.5C 562.617,340.944 562.117,340.611 561.5,340.5C 560.511,333.535 559.677,326.535 559,319.5C 556.627,312.635 554.794,305.635 553.5,298.5C 552.962,296.883 552.629,295.216 552.5,293.5 Z"/></g>
<g><path style="opacity:1" fill="#2dccc3" d="M 583.5,323.5 C 585.643,326.452 587.309,329.785 588.5,333.5C 591.836,335.767 593.836,338.767 594.5,342.5C 593.167,342.5 591.833,342.5 590.5,342.5C 590.541,348.791 587.541,352.791 581.5,354.5C 580.571,355.689 580.238,357.022 580.5,358.5C 577.681,359.494 574.847,360.494 572,361.5C 571.635,366.882 570.135,371.882 567.5,376.5C 566.757,375.092 565.923,373.759 565,372.5C 563.884,365.208 563.384,357.874 563.5,350.5C 564.216,352.556 564.883,354.723 565.5,357C 567.706,356.715 569.873,356.548 572,356.5C 571.049,351.598 571.549,346.764 573.5,342C 573.333,341.5 573.167,341 573,340.5C 571.989,341.337 570.822,341.67 569.5,341.5C 570.741,336.967 571.741,332.3 572.5,327.5C 579.547,329.118 581.714,326.451 579,319.5C 573.779,312.92 568.279,306.42 562.5,300C 558.66,298.582 555.326,296.415 552.5,293.5C 552.62,292.414 553.287,291.747 554.5,291.5C 559.92,295.414 564.92,299.914 569.5,305C 570.448,305.483 571.448,305.649 572.5,305.5C 572.5,306.5 572.5,307.5 572.5,308.5C 573.675,308.281 574.675,308.614 575.5,309.5C 577.668,314.51 580.335,319.176 583.5,323.5 Z"/></g>
<g><path style="opacity:1" fill="#15bbb7" d="M 583.5,323.5 C 588.404,328.335 593.071,333.335 597.5,338.5C 596.13,342.051 597.464,343.718 601.5,343.5C 602.088,347.006 603.922,349.673 607,351.5C 608.747,354.067 610.247,356.734 611.5,359.5C 610.506,362.124 609.506,364.79 608.5,367.5C 610.167,367.5 611.833,367.5 613.5,367.5C 614.669,373.167 612.336,376 606.5,376C 602.068,379.929 597.735,384.096 593.5,388.5C 592.264,389.246 590.93,389.579 589.5,389.5C 589.649,390.552 589.483,391.552 589,392.5C 586.833,393.333 585.333,394.833 584.5,397C 583.207,397.49 581.873,397.657 580.5,397.5C 579.349,400.836 579.182,404.169 580,407.5C 575.41,408.911 572.91,411.911 572.5,416.5C 568.857,417.403 565.357,418.736 562,420.5C 561.692,419.692 561.192,419.025 560.5,418.5C 560.213,423.242 558.213,427.075 554.5,430C 556.916,431.161 558.916,432.828 560.5,435C 558.109,435.287 555.776,435.787 553.5,436.5C 552.5,439.167 551.5,441.833 550.5,444.5C 548.465,443.403 547.132,441.737 546.5,439.5C 544.879,441.624 543.046,443.624 541,445.5C 538.773,452.284 536.273,458.951 533.5,465.5C 530.892,465.4 528.558,466.067 526.5,467.5C 526.5,467.167 526.5,466.833 526.5,466.5C 527.273,463.955 528.773,461.955 531,460.5C 534.1,455.452 536.266,449.952 537.5,444C 545.1,432.337 550.433,419.837 553.5,406.5C 554.117,406.389 554.617,406.056 555,405.5C 560.465,384.185 562.632,362.518 561.5,340.5C 562.117,340.611 562.617,340.944 563,341.5C 563.498,344.482 563.665,347.482 563.5,350.5C 563.384,357.874 563.884,365.208 565,372.5C 565.923,373.759 566.757,375.092 567.5,376.5C 570.135,371.882 571.635,366.882 572,361.5C 574.847,360.494 577.681,359.494 580.5,358.5C 580.238,357.022 580.571,355.689 581.5,354.5C 587.541,352.791 590.541,348.791 590.5,342.5C 591.833,342.5 593.167,342.5 594.5,342.5C 593.836,338.767 591.836,335.767 588.5,333.5C 587.309,329.785 585.643,326.452 583.5,323.5 Z"/></g>
<g><path style="opacity:1" fill="#199476" d="M 551.5,297.5 C 552.167,297.833 552.833,298.167 553.5,298.5C 554.794,305.635 556.627,312.635 559,319.5C 559.677,326.535 560.511,333.535 561.5,340.5C 562.632,362.518 560.465,384.185 555,405.5C 554.617,406.056 554.117,406.389 553.5,406.5C 562.005,369.887 561.339,333.554 551.5,297.5 Z"/></g>
<g><path style="opacity:1" fill="#05b1b5" d="M 611.5,359.5 C 615.353,363.568 617.353,368.568 617.5,374.5C 619.071,375.309 620.738,375.643 622.5,375.5C 622.663,378.94 620.996,380.94 617.5,381.5C 614.781,385.37 611.115,388.036 606.5,389.5C 604.671,391.156 603.337,393.156 602.5,395.5C 599.144,399.354 595.311,402.687 591,405.5C 590.508,406.549 590.674,407.549 591.5,408.5C 587.315,409.519 585.148,412.186 585,416.5C 582.667,417.877 580.167,418.877 577.5,419.5C 576.614,420.325 576.281,421.325 576.5,422.5C 575.325,422.281 574.325,422.614 573.5,423.5C 571.972,428.693 569.972,433.693 567.5,438.5C 565.695,440.903 563.362,442.57 560.5,443.5C 558.8,445.068 557.466,446.901 556.5,449C 548.145,449.179 545.312,453.345 548,461.5C 548.903,462.701 550.069,463.535 551.5,464C 550.045,465.626 548.378,466.792 546.5,467.5C 540.884,467.21 535.384,467.877 530,469.5C 528.319,469.392 527.152,468.725 526.5,467.5C 528.558,466.067 530.892,465.4 533.5,465.5C 536.273,458.951 538.773,452.284 541,445.5C 543.046,443.624 544.879,441.624 546.5,439.5C 547.132,441.737 548.465,443.403 550.5,444.5C 551.5,441.833 552.5,439.167 553.5,436.5C 555.776,435.787 558.109,435.287 560.5,435C 558.916,432.828 556.916,431.161 554.5,430C 558.213,427.075 560.213,423.242 560.5,418.5C 561.192,419.025 561.692,419.692 562,420.5C 565.357,418.736 568.857,417.403 572.5,416.5C 572.91,411.911 575.41,408.911 580,407.5C 579.182,404.169 579.349,400.836 580.5,397.5C 581.873,397.657 583.207,397.49 584.5,397C 585.333,394.833 586.833,393.333 589,392.5C 589.483,391.552 589.649,390.552 589.5,389.5C 590.93,389.579 592.264,389.246 593.5,388.5C 597.735,384.096 602.068,379.929 606.5,376C 612.336,376 614.669,373.167 613.5,367.5C 611.833,367.5 610.167,367.5 608.5,367.5C 609.506,364.79 610.506,362.124 611.5,359.5 Z"/></g>
<g><path style="opacity:1" fill="#04a6ae" d="M 600.5,337.5 C 616.083,355.434 631.416,373.768 646.5,392.5C 645.883,392.389 645.383,392.056 645,391.5C 643.908,395.431 641.408,397.431 637.5,397.5C 638.072,402.432 640.405,406.432 644.5,409.5C 645.484,412.428 645.817,415.428 645.5,418.5C 645.279,419.735 644.612,420.735 643.5,421.5C 645.135,423.646 644.801,424.813 642.5,425C 641.572,423.024 640.405,421.191 639,419.5C 638.762,415.778 638.262,412.111 637.5,408.5C 635.392,407.056 633.059,406.39 630.5,406.5C 629.167,411.167 627.833,415.833 626.5,420.5C 624.334,420.421 622.334,419.754 620.5,418.5C 617.019,419.907 614.352,422.24 612.5,425.5C 608.922,426.819 605.256,427.819 601.5,428.5C 599.502,432.457 597.502,436.457 595.5,440.5C 590.159,441.915 587.159,445.248 586.5,450.5C 584.396,450.201 582.396,450.534 580.5,451.5C 576.389,456.451 571.555,460.451 566,463.5C 565.251,464.635 565.417,465.635 566.5,466.5C 568.306,468.608 570.473,470.274 573,471.5C 573.402,472.872 573.902,474.205 574.5,475.5C 573.372,476.262 572.205,476.929 571,477.5C 568.815,475.46 566.315,474.126 563.5,473.5C 563.373,469.67 561.706,468.337 558.5,469.5C 556.564,468.741 554.731,467.741 553,466.5C 551.128,467.068 549.295,467.735 547.5,468.5C 546.893,468.376 546.56,468.043 546.5,467.5C 548.378,466.792 550.045,465.626 551.5,464C 550.069,463.535 548.903,462.701 548,461.5C 545.312,453.345 548.145,449.179 556.5,449C 557.466,446.901 558.8,445.068 560.5,443.5C 563.362,442.57 565.695,440.903 567.5,438.5C 569.972,433.693 571.972,428.693 573.5,423.5C 574.325,422.614 575.325,422.281 576.5,422.5C 576.281,421.325 576.614,420.325 577.5,419.5C 580.167,418.877 582.667,417.877 585,416.5C 585.148,412.186 587.315,409.519 591.5,408.5C 590.674,407.549 590.508,406.549 591,405.5C 595.311,402.687 599.144,399.354 602.5,395.5C 603.337,393.156 604.671,391.156 606.5,389.5C 611.115,388.036 614.781,385.37 617.5,381.5C 620.996,380.94 622.663,378.94 622.5,375.5C 620.738,375.643 619.071,375.309 617.5,374.5C 617.353,368.568 615.353,363.568 611.5,359.5C 610.247,356.734 608.747,354.067 607,351.5C 603.922,349.673 602.088,347.006 601.5,343.5C 597.464,343.718 596.13,342.051 597.5,338.5C 598.635,337.897 599.635,337.564 600.5,337.5 Z"/></g>
<g><path style="opacity:1" fill="#009fab" d="M 645.5,418.5 C 648.22,420.917 650.22,423.917 651.5,427.5C 651,428.881 650,429.547 648.5,429.5C 646.181,428.936 643.847,428.436 641.5,428C 639.035,425.69 637.368,422.857 636.5,419.5C 635.833,419.833 635.167,420.167 634.5,420.5C 633.345,423.446 633.179,426.446 634,429.5C 637.66,429.898 639.494,431.898 639.5,435.5C 636.318,436.322 633.318,436.322 630.5,435.5C 629.079,438.009 627.412,440.343 625.5,442.5C 624.571,443.689 624.238,445.022 624.5,446.5C 620.472,446.565 616.805,447.732 613.5,450C 611.502,452.482 610.168,455.315 609.5,458.5C 607.477,456.827 605.144,456.16 602.5,456.5C 602.5,457.833 602.5,459.167 602.5,460.5C 601.167,460.5 599.833,460.5 598.5,460.5C 598.84,463.144 598.173,465.477 596.5,467.5C 592.833,468.167 589.167,468.833 585.5,469.5C 585.167,470.167 584.833,470.833 584.5,471.5C 585.544,472.623 586.21,473.956 586.5,475.5C 585.522,477.777 584.855,480.11 584.5,482.5C 581.191,482.308 578.691,483.641 577,486.5C 575.887,485.24 575.72,484.073 576.5,483C 575.5,482 574.5,481 573.5,480C 571.721,480.979 570.055,480.646 568.5,479C 565.193,475.748 561.859,472.581 558.5,469.5C 561.706,468.337 563.373,469.67 563.5,473.5C 566.315,474.126 568.815,475.46 571,477.5C 572.205,476.929 573.372,476.262 574.5,475.5C 573.902,474.205 573.402,472.872 573,471.5C 570.473,470.274 568.306,468.608 566.5,466.5C 565.417,465.635 565.251,464.635 566,463.5C 571.555,460.451 576.389,456.451 580.5,451.5C 582.396,450.534 584.396,450.201 586.5,450.5C 587.159,445.248 590.159,441.915 595.5,440.5C 597.502,436.457 599.502,432.457 601.5,428.5C 605.256,427.819 608.922,426.819 612.5,425.5C 614.352,422.24 617.019,419.907 620.5,418.5C 622.334,419.754 624.334,420.421 626.5,420.5C 627.833,415.833 629.167,411.167 630.5,406.5C 633.059,406.39 635.392,407.056 637.5,408.5C 638.262,412.111 638.762,415.778 639,419.5C 640.405,421.191 641.572,423.024 642.5,425C 644.801,424.813 645.135,423.646 643.5,421.5C 644.612,420.735 645.279,419.735 645.5,418.5 Z"/></g>
<g><path style="opacity:0.97" fill="#0d6139" d="M 484.5,320.5 C 485.478,320.811 486.145,321.478 486.5,322.5C 486.568,328.369 484.068,332.702 479,335.5C 475.828,341.515 471.494,346.515 466,350.5C 464.561,352.275 463.561,354.275 463,356.5C 457.06,362.328 451.56,368.661 446.5,375.5C 441.764,378.216 439.097,382.216 438.5,387.5C 436.692,387.491 435.025,387.991 433.5,389C 432.239,394.43 428.905,397.597 423.5,398.5C 423.657,399.873 423.49,401.207 423,402.5C 415.789,411.389 408.122,420.056 400,428.5C 398.071,432.123 396.237,435.79 394.5,439.5C 393.019,440.48 391.685,441.647 390.5,443C 387.1,442.793 383.766,442.959 380.5,443.5C 414.075,403.407 447.575,363.074 481,322.5C 481.816,321.177 482.983,320.511 484.5,320.5 Z"/></g>
<g><path style="opacity:1" fill="#0597a6" d="M 646.5,392.5 C 656.865,404.198 666.865,416.198 676.5,428.5C 673.547,427.229 671.547,428.229 670.5,431.5C 669.5,431.5 668.5,431.5 667.5,431.5C 667.679,433.954 667.013,436.121 665.5,438C 665.919,440.086 667.086,441.586 669,442.5C 669.756,444.809 669.256,446.809 667.5,448.5C 666.333,446.833 665.167,445.167 664,443.5C 660.375,446.295 658.208,449.961 657.5,454.5C 653.841,457.812 651.174,461.812 649.5,466.5C 647.281,469.574 644.281,470.907 640.5,470.5C 640.5,471.833 640.5,473.167 640.5,474.5C 637.833,474.5 635.167,474.5 632.5,474.5C 632.5,477.167 632.5,479.833 632.5,482.5C 628.678,482.649 626.345,484.649 625.5,488.5C 624.571,487.311 624.238,485.978 624.5,484.5C 622.5,484.5 620.5,484.5 618.5,484.5C 618.5,485.833 618.5,487.167 618.5,488.5C 617.167,488.5 615.833,488.5 614.5,488.5C 614.5,492.5 612.5,494.5 608.5,494.5C 608.762,495.978 608.429,497.311 607.5,498.5C 604.599,496.576 601.599,494.743 598.5,493C 597.207,492.51 595.873,492.343 594.5,492.5C 594.502,496.349 596.335,499.015 600,500.5C 600.656,503.801 601.656,506.801 603,509.5C 601.055,508.137 598.888,507.303 596.5,507C 594.983,504.796 593.65,502.462 592.5,500C 590.846,499.392 589.179,498.892 587.5,498.5C 586.307,498.97 585.64,499.97 585.5,501.5C 585.961,504.216 586.627,506.882 587.5,509.5C 586.638,511.767 584.971,512.767 582.5,512.5C 571.231,500.226 559.898,487.893 548.5,475.5C 540.275,471.393 532.275,471.726 524.5,476.5C 523.532,473.555 523.366,470.555 524,467.5C 524.671,466.748 525.504,466.414 526.5,466.5C 526.5,466.833 526.5,467.167 526.5,467.5C 527.152,468.725 528.319,469.392 530,469.5C 535.384,467.877 540.884,467.21 546.5,467.5C 546.56,468.043 546.893,468.376 547.5,468.5C 549.295,467.735 551.128,467.068 553,466.5C 554.731,467.741 556.564,468.741 558.5,469.5C 561.859,472.581 565.193,475.748 568.5,479C 570.055,480.646 571.721,480.979 573.5,480C 574.5,481 575.5,482 576.5,483C 575.72,484.073 575.887,485.24 577,486.5C 578.691,483.641 581.191,482.308 584.5,482.5C 584.855,480.11 585.522,477.777 586.5,475.5C 586.21,473.956 585.544,472.623 584.5,471.5C 584.833,470.833 585.167,470.167 585.5,469.5C 589.167,468.833 592.833,468.167 596.5,467.5C 598.173,465.477 598.84,463.144 598.5,460.5C 599.833,460.5 601.167,460.5 602.5,460.5C 602.5,459.167 602.5,457.833 602.5,456.5C 605.144,456.16 607.477,456.827 609.5,458.5C 610.168,455.315 611.502,452.482 613.5,450C 616.805,447.732 620.472,446.565 624.5,446.5C 624.238,445.022 624.571,443.689 625.5,442.5C 627.412,440.343 629.079,438.009 630.5,435.5C 633.318,436.322 636.318,436.322 639.5,435.5C 639.494,431.898 637.66,429.898 634,429.5C 633.179,426.446 633.345,423.446 634.5,420.5C 635.167,420.167 635.833,419.833 636.5,419.5C 637.368,422.857 639.035,425.69 641.5,428C 643.847,428.436 646.181,428.936 648.5,429.5C 650,429.547 651,428.881 651.5,427.5C 650.22,423.917 648.22,420.917 645.5,418.5C 645.817,415.428 645.484,412.428 644.5,409.5C 640.405,406.432 638.072,402.432 637.5,397.5C 641.408,397.431 643.908,395.431 645,391.5C 645.383,392.056 645.883,392.389 646.5,392.5 Z"/></g>
<g><path style="opacity:1" fill="#0192a5" d="M 670.5,431.5 C 671.488,433.437 672.488,435.437 673.5,437.5C 672.833,439.167 672.167,440.833 671.5,442.5C 672.515,446.131 672.681,449.798 672,453.5C 671.333,455.5 670,456.833 668,457.5C 667.22,459.387 667.387,461.054 668.5,462.5C 667.831,468.092 666.498,473.425 664.5,478.5C 662.5,478.5 660.5,478.5 658.5,478.5C 657.356,482.011 655.689,485.344 653.5,488.5C 649.934,492.293 645.934,495.626 641.5,498.5C 640.571,499.689 640.238,501.022 640.5,502.5C 637.167,502.5 633.833,502.5 630.5,502.5C 630.5,503.833 630.5,505.167 630.5,506.5C 628.178,508.412 625.512,509.745 622.5,510.5C 622.5,511.833 622.5,513.167 622.5,514.5C 619.003,516.072 615.337,517.405 611.5,518.5C 609.79,523.968 607.123,524.634 603.5,520.5C 603.931,519.707 604.265,518.873 604.5,518C 603.391,515.953 602.724,513.787 602.5,511.5C 599.276,511.203 596.276,511.87 593.5,513.5C 592.5,512.833 591.5,512.167 590.5,511.5C 588.916,507.271 587.916,502.938 587.5,498.5C 589.179,498.892 590.846,499.392 592.5,500C 593.65,502.462 594.983,504.796 596.5,507C 598.888,507.303 601.055,508.137 603,509.5C 601.656,506.801 600.656,503.801 600,500.5C 596.335,499.015 594.502,496.349 594.5,492.5C 595.873,492.343 597.207,492.51 598.5,493C 601.599,494.743 604.599,496.576 607.5,498.5C 608.429,497.311 608.762,495.978 608.5,494.5C 612.5,494.5 614.5,492.5 614.5,488.5C 615.833,488.5 617.167,488.5 618.5,488.5C 618.5,487.167 618.5,485.833 618.5,484.5C 620.5,484.5 622.5,484.5 624.5,484.5C 624.238,485.978 624.571,487.311 625.5,488.5C 626.345,484.649 628.678,482.649 632.5,482.5C 632.5,479.833 632.5,477.167 632.5,474.5C 635.167,474.5 637.833,474.5 640.5,474.5C 640.5,473.167 640.5,471.833 640.5,470.5C 644.281,470.907 647.281,469.574 649.5,466.5C 651.174,461.812 653.841,457.812 657.5,454.5C 658.208,449.961 660.375,446.295 664,443.5C 665.167,445.167 666.333,446.833 667.5,448.5C 669.256,446.809 669.756,444.809 669,442.5C 667.086,441.586 665.919,440.086 665.5,438C 667.013,436.121 667.679,433.954 667.5,431.5C 668.5,431.5 669.5,431.5 670.5,431.5 Z"/></g>
<g><path style="opacity:1" fill="#027a98" d="M 680.5,434.5 C 683.088,436.08 685.422,438.08 687.5,440.5C 696.228,452.513 705.728,463.847 716,474.5C 718.233,479.401 721.566,483.401 726,486.5C 729.561,492.566 734.061,497.899 739.5,502.5C 752.909,518.406 765.743,534.739 778,551.5C 780.152,560.314 781.652,569.314 782.5,578.5C 781.743,587.521 780.243,596.521 778,605.5C 773.004,614.075 767.17,622.075 760.5,629.5C 731.21,663.39 702.376,697.724 674,732.5C 669.57,735.596 666.237,739.596 664,744.5C 661.683,746.316 659.516,748.316 657.5,750.5C 647.197,763.476 636.864,776.476 626.5,789.5C 619.343,797.081 612.343,804.748 605.5,812.5C 594.901,827.543 583.235,841.877 570.5,855.5C 560.308,861.293 549.308,863.46 537.5,862C 534.7,860.768 531.7,860.101 528.5,860C 527.944,859.617 527.611,859.117 527.5,858.5C 528.649,858.209 529.316,857.376 529.5,856C 529.177,850.231 527.844,844.731 525.5,839.5C 525.043,838.702 524.376,838.369 523.5,838.5C 522.415,834.24 521.748,829.906 521.5,825.5C 517.386,800.13 517.552,774.797 522,749.5C 526.874,737.484 530.874,725.151 534,712.5C 535.051,709.039 537.051,706.373 540,704.5C 543.16,698.351 545.827,692.018 548,685.5C 549.979,683.435 551.812,681.268 553.5,679C 554.448,678.517 555.448,678.351 556.5,678.5C 556.38,676.266 556.713,674.099 557.5,672C 556.929,670.401 555.929,669.234 554.5,668.5C 569.308,651.145 584.308,633.812 599.5,616.5C 605.425,608.32 611.591,600.32 618,592.5C 619.333,589.833 620.667,587.167 622,584.5C 622.208,581.002 623.041,577.669 624.5,574.5C 623.192,571.27 622.192,567.936 621.5,564.5C 619.119,559.738 616.786,555.071 614.5,550.5C 614.461,549.417 614.127,548.417 613.5,547.5C 614.242,546.713 615.075,546.047 616,545.5C 618.014,547.183 619.68,549.183 621,551.5C 620.887,556.206 623.054,558.873 627.5,559.5C 627.018,560.416 626.685,561.416 626.5,562.5C 627.922,565.014 629.088,567.681 630,570.5C 632.12,570.374 634.286,570.041 636.5,569.5C 637.645,566.252 638.479,562.919 639,559.5C 640.509,558.91 642.009,558.244 643.5,557.5C 647.535,549.43 651.535,541.43 655.5,533.5C 655.023,532.522 654.357,531.689 653.5,531C 656.05,528.451 658.217,525.618 660,522.5C 667.804,500.048 672.971,476.881 675.5,453C 673.869,449.71 673.369,446.21 674,442.5C 674.97,439.556 675.804,436.556 676.5,433.5C 677.736,434.246 679.07,434.579 680.5,434.5 Z"/></g>
<g><path style="opacity:0.801" fill="#000000" d="M 954.5,470.5 C 975.816,470.27 995.482,475.77 1013.5,487C 1016.9,489.281 1019.74,492.114 1022,495.5C 1022.67,508.833 1022.67,522.167 1022,535.5C 1021.31,536.025 1020.81,536.692 1020.5,537.5C 1010.18,538.666 999.849,538.832 989.5,538C 987.58,528.848 985.58,519.682 983.5,510.5C 973.032,504.712 961.698,502.879 949.5,505C 936.615,509.763 931.781,518.929 935,532.5C 936.833,535.667 939.333,538.167 942.5,540C 956.991,546.156 971.991,551.156 987.5,555C 999.375,560.375 1009.71,567.875 1018.5,577.5C 1034.04,602.846 1031.38,626.013 1010.5,647C 995.651,657.286 979.151,662.453 961,662.5C 940.944,662.218 922.111,657.218 904.5,647.5C 901.133,645.476 897.967,643.143 895,640.5C 894.167,625.156 894.334,609.822 895.5,594.5C 896.308,594.192 896.975,593.692 897.5,593C 906.5,592.333 915.5,592.333 924.5,593C 925.787,594.41 926.954,595.91 928,597.5C 929.546,605.684 930.712,614.017 931.5,622.5C 935.627,624.899 939.96,626.732 944.5,628C 949.882,628.039 955.049,628.872 960,630.5C 964.686,628.979 969.52,628.146 974.5,628C 987.12,622.85 991.453,613.683 987.5,600.5C 983.423,594.113 977.756,589.613 970.5,587C 959.802,583.908 949.135,580.908 938.5,578C 923.036,573.491 910.536,564.657 901,551.5C 887.08,518.702 895.913,493.868 927.5,477C 931.378,475.42 935.378,474.086 939.5,473C 943.833,472.667 948.167,472.333 952.5,472C 953.416,471.722 954.082,471.222 954.5,470.5 Z"/></g>
<g><path style="opacity:0.811" fill="#000000" d="M 1050.5,486.5 C 1060.51,486.334 1070.51,486.5 1080.5,487C 1081.5,487.5 1082.5,488 1083.5,488.5C 1084.5,498.478 1084.83,508.478 1084.5,518.5C 1093.55,518.194 1102.55,518.528 1111.5,519.5C 1112.5,529.144 1112.83,538.81 1112.5,548.5C 1103.17,548.5 1093.83,548.5 1084.5,548.5C 1084.33,573.502 1084.5,598.502 1085,623.5C 1085.95,625.788 1087.11,627.955 1088.5,630C 1095.2,630.891 1101.7,630.391 1108,628.5C 1109.89,628.58 1111.73,628.913 1113.5,629.5C 1115.64,633.976 1117.14,638.643 1118,643.5C 1118.5,647.821 1118.67,652.154 1118.5,656.5C 1102.78,660.268 1086.78,661.268 1070.5,659.5C 1057.56,655.395 1049.73,646.728 1047,633.5C 1046.5,605.169 1046.33,576.835 1046.5,548.5C 1039.83,548.5 1033.17,548.5 1026.5,548.5C 1026.17,538.81 1026.5,529.144 1027.5,519.5C 1033.77,518.54 1040.11,518.207 1046.5,518.5C 1046.17,508.478 1046.5,498.478 1047.5,488.5C 1048.74,488.058 1049.74,487.391 1050.5,486.5 Z"/></g>
<g><path style="opacity:1" fill="#0186a1" d="M 676.5,428.5 C 678.121,430.264 679.454,432.264 680.5,434.5C 679.07,434.579 677.736,434.246 676.5,433.5C 675.804,436.556 674.97,439.556 674,442.5C 673.369,446.21 673.869,449.71 675.5,453C 672.971,476.881 667.804,500.048 660,522.5C 658.217,525.618 656.05,528.451 653.5,531C 654.357,531.689 655.023,532.522 655.5,533.5C 651.535,541.43 647.535,549.43 643.5,557.5C 642.009,558.244 640.509,558.91 639,559.5C 638.479,562.919 637.645,566.252 636.5,569.5C 634.286,570.041 632.12,570.374 630,570.5C 629.088,567.681 627.922,565.014 626.5,562.5C 626.685,561.416 627.018,560.416 627.5,559.5C 629.441,558.564 631.108,557.23 632.5,555.5C 629.557,548.736 628.724,541.736 630,534.5C 628.073,528.991 625.906,523.658 623.5,518.5C 625.167,518.5 626.833,518.5 628.5,518.5C 628.966,523.469 631.632,526.136 636.5,526.5C 636.5,527.833 636.5,529.167 636.5,530.5C 639.788,530.927 642.788,530.26 645.5,528.5C 646.598,525.247 647.264,521.914 647.5,518.5C 655.624,519.552 660.624,516.052 662.5,508C 667.693,493.257 670.693,478.091 671.5,462.5C 670.5,462.5 669.5,462.5 668.5,462.5C 667.387,461.054 667.22,459.387 668,457.5C 670,456.833 671.333,455.5 672,453.5C 672.681,449.798 672.515,446.131 671.5,442.5C 672.167,440.833 672.833,439.167 673.5,437.5C 672.488,435.437 671.488,433.437 670.5,431.5C 671.547,428.229 673.547,427.229 676.5,428.5 Z"/></g>
<g><path style="opacity:0.817" fill="#000000" d="M 1176.5,514.5 C 1210.52,515.362 1231.02,532.362 1238,565.5C 1238.5,577.162 1238.67,588.829 1238.5,600.5C 1211.17,600.5 1183.83,600.5 1156.5,600.5C 1157.27,621.772 1168.27,631.605 1189.5,630C 1199.71,628.798 1208.38,624.465 1215.5,617C 1217.5,616.333 1219.5,616.333 1221.5,617C 1227.11,624.419 1232.11,632.252 1236.5,640.5C 1229.36,648.573 1220.69,654.406 1210.5,658C 1203.56,659.687 1196.56,661.02 1189.5,662C 1151.08,663.997 1126.91,646.497 1117,609.5C 1111.7,582.875 1116.87,558.875 1132.5,537.5C 1144.5,524.447 1159.17,516.78 1176.5,514.5 Z M 1172.5,548.5 C 1188.18,546.184 1196.84,552.851 1198.5,568.5C 1185.17,568.5 1171.83,568.5 1158.5,568.5C 1160.52,559.837 1165.19,553.17 1172.5,548.5 Z"/></g>
<g><path style="opacity:0.817" fill="#000000" d="M 1438.5,514.5 C 1472.52,515.362 1493.02,532.362 1500,565.5C 1500.5,577.162 1500.67,588.829 1500.5,600.5C 1473.17,600.5 1445.83,600.5 1418.5,600.5C 1419.27,621.772 1430.27,631.605 1451.5,630C 1461.71,628.798 1470.38,624.465 1477.5,617C 1479.5,616.333 1481.5,616.333 1483.5,617C 1489.11,624.419 1494.11,632.252 1498.5,640.5C 1491.36,648.573 1482.69,654.406 1472.5,658C 1465.56,659.687 1458.56,661.02 1451.5,662C 1413.08,663.997 1388.91,646.497 1379,609.5C 1373.7,582.875 1378.87,558.875 1394.5,537.5C 1406.5,524.447 1421.17,516.78 1438.5,514.5 Z M 1434.5,548.5 C 1450.18,546.184 1458.84,552.851 1460.5,568.5C 1447.17,568.5 1433.83,568.5 1420.5,568.5C 1422.52,559.837 1427.19,553.17 1434.5,548.5 Z"/></g>
<g><path style="opacity:0.813" fill="#000000" d="M 1588.5,514.5 C 1623.65,516.385 1641.48,535.052 1642,570.5C 1642.17,589.842 1642.67,609.175 1643.5,628.5C 1648.83,629.833 1654.17,631.167 1659.5,632.5C 1660.5,641.141 1660.83,649.808 1660.5,658.5C 1635.16,658.667 1609.83,658.5 1584.5,658C 1584,657.5 1583.5,657 1583,656.5C 1582.33,649.5 1582.33,642.5 1583,635.5C 1584.17,633.667 1585.67,632.167 1587.5,631C 1592.65,630.821 1597.65,629.988 1602.5,628.5C 1602.67,606.831 1602.5,585.164 1602,563.5C 1598.31,551.398 1590.15,546.565 1577.5,549C 1570.36,551.487 1564.86,555.987 1561,562.5C 1560.5,584.497 1560.33,606.497 1560.5,628.5C 1565.63,630.018 1570.96,630.851 1576.5,631C 1577.35,632.022 1578.35,632.855 1579.5,633.5C 1580.5,641.807 1580.83,650.14 1580.5,658.5C 1554.83,658.667 1529.16,658.5 1503.5,658C 1502.35,650.246 1502.19,642.413 1503,634.5C 1504.17,633.333 1505.33,632.167 1506.5,631C 1512.04,630.851 1517.37,630.018 1522.5,628.5C 1522.5,601.833 1522.5,575.167 1522.5,548.5C 1516.6,547.506 1510.6,546.673 1504.5,546C 1504,545.5 1503.5,545 1503,544.5C 1502.17,536.479 1502.34,528.479 1503.5,520.5C 1504.31,520.192 1504.97,519.692 1505.5,519C 1522.5,518.333 1539.5,518.333 1556.5,519C 1557.93,520.916 1558.93,523.083 1559.5,525.5C 1567.52,519.416 1576.52,516.249 1586.5,516C 1587.42,515.722 1588.08,515.222 1588.5,514.5 Z"/></g>
<g><path style="opacity:0.799" fill="#000000" d="M 1235.5,518.5 C 1256.84,518.333 1278.17,518.5 1299.5,519C 1300.03,519.692 1300.69,520.192 1301.5,520.5C 1302.66,528.479 1302.83,536.479 1302,544.5C 1301.5,545 1301,545.5 1300.5,546C 1297.17,546.333 1293.83,546.667 1290.5,547C 1289.43,547.739 1288.76,548.739 1288.5,550C 1295.65,567.824 1302.82,585.657 1310,603.5C 1316.35,585.204 1322.85,567.037 1329.5,549C 1328.83,548.333 1328.17,547.667 1327.5,547C 1323.26,547.003 1319.26,546.17 1315.5,544.5C 1314.34,536.855 1314.17,529.188 1315,521.5C 1315.83,520.667 1316.67,519.833 1317.5,519C 1338.83,518.333 1360.17,518.333 1381.5,519C 1382.03,519.692 1382.69,520.192 1383.5,520.5C 1384.67,528.813 1384.83,537.147 1384,545.5C 1378.77,546.14 1373.6,547.14 1368.5,548.5C 1354.47,585.249 1340.47,621.916 1326.5,658.5C 1315.17,658.5 1303.83,658.5 1292.5,658.5C 1278.11,621.665 1263.11,584.998 1247.5,548.5C 1246.69,548.192 1246.03,547.692 1245.5,547C 1241.83,546.667 1238.17,546.333 1234.5,546C 1234,545.5 1233.5,545 1233,544.5C 1232.17,536.479 1232.34,528.479 1233.5,520.5C 1234.52,520.145 1235.19,519.478 1235.5,518.5 Z"/></g>
<g><path style="opacity:1" fill="#058b9f" d="M 668.5,462.5 C 669.5,462.5 670.5,462.5 671.5,462.5C 670.693,478.091 667.693,493.257 662.5,508C 660.624,516.052 655.624,519.552 647.5,518.5C 647.264,521.914 646.598,525.247 645.5,528.5C 642.788,530.26 639.788,530.927 636.5,530.5C 636.5,529.167 636.5,527.833 636.5,526.5C 631.632,526.136 628.966,523.469 628.5,518.5C 626.833,518.5 625.167,518.5 623.5,518.5C 625.906,523.658 628.073,528.991 630,534.5C 628.724,541.736 629.557,548.736 632.5,555.5C 631.108,557.23 629.441,558.564 627.5,559.5C 623.054,558.873 620.887,556.206 621,551.5C 619.68,549.183 618.014,547.183 616,545.5C 615.075,546.047 614.242,546.713 613.5,547.5C 614.127,548.417 614.461,549.417 614.5,550.5C 607.742,544.391 601.409,537.724 595.5,530.5C 591.338,524.289 587.005,518.289 582.5,512.5C 584.971,512.767 586.638,511.767 587.5,509.5C 586.627,506.882 585.961,504.216 585.5,501.5C 585.64,499.97 586.307,498.97 587.5,498.5C 587.916,502.938 588.916,507.271 590.5,511.5C 591.5,512.167 592.5,512.833 593.5,513.5C 596.276,511.87 599.276,511.203 602.5,511.5C 602.724,513.787 603.391,515.953 604.5,518C 604.265,518.873 603.931,519.707 603.5,520.5C 607.123,524.634 609.79,523.968 611.5,518.5C 615.337,517.405 619.003,516.072 622.5,514.5C 622.5,513.167 622.5,511.833 622.5,510.5C 625.512,509.745 628.178,508.412 630.5,506.5C 630.5,505.167 630.5,503.833 630.5,502.5C 633.833,502.5 637.167,502.5 640.5,502.5C 640.238,501.022 640.571,499.689 641.5,498.5C 645.934,495.626 649.934,492.293 653.5,488.5C 655.689,485.344 657.356,482.011 658.5,478.5C 660.5,478.5 662.5,478.5 664.5,478.5C 666.498,473.425 667.831,468.092 668.5,462.5 Z"/></g>
<g><path style="opacity:1" fill="#09653b" d="M 378.5,445.5 C 379.937,446.725 381.604,447.725 383.5,448.5C 380.306,452.527 377.306,456.694 374.5,461C 374.833,461.333 375.167,461.667 375.5,462C 370.737,465.173 367.404,469.506 365.5,475C 359.402,476.766 355.235,480.599 353,486.5C 349.775,488.597 347.775,491.597 347,495.5C 341.571,497.558 338.737,501.558 338.5,507.5C 337.448,507.351 336.448,507.517 335.5,508C 332.886,511.737 329.719,514.903 326,517.5C 325.397,522.764 322.564,525.764 317.5,526.5C 313.907,532.091 311.241,538.091 309.5,544.5C 308.372,545.262 307.205,545.929 306,546.5C 305.895,549.473 306.062,552.473 306.5,555.5C 306.089,559.23 304.756,562.564 302.5,565.5C 304.983,569.458 306.983,573.624 308.5,578C 311.926,579.238 313.592,578.071 313.5,574.5C 315.5,574.5 317.5,574.5 319.5,574.5C 320.14,579.893 321.473,585.06 323.5,590C 323.174,592.484 322.174,594.651 320.5,596.5C 322.918,599.762 325.584,602.928 328.5,606C 330.107,606.115 331.607,605.615 333,604.5C 335.22,605.932 336.72,607.932 337.5,610.5C 338.842,608.995 340.508,608.328 342.5,608.5C 342.5,609.833 342.5,611.167 342.5,612.5C 343.833,612.5 345.167,612.5 346.5,612.5C 346.235,618.64 346.902,624.64 348.5,630.5C 346.5,630.5 344.5,630.5 342.5,630.5C 342.364,622.012 341.364,621.679 339.5,629.5C 341.64,632.807 343.974,635.974 346.5,639C 347.793,639.49 349.127,639.657 350.5,639.5C 349.175,632.83 351.842,630.164 358.5,631.5C 359.129,633.465 359.796,635.465 360.5,637.5C 360.167,638.5 359.833,639.5 359.5,640.5C 357.133,644.484 354.8,644.484 352.5,640.5C 350.899,641.035 350.399,642.035 351,643.5C 352.968,647.195 355.802,648.195 359.5,646.5C 360.177,650.593 361.177,654.593 362.5,658.5C 364.765,659.7 366.598,661.367 368,663.5C 371.677,670.846 376.511,677.346 382.5,683C 384.473,683.495 386.473,683.662 388.5,683.5C 388.523,685.927 389.023,688.26 390,690.5C 394.079,695.444 398.245,700.278 402.5,705C 400.789,706.776 398.789,707.942 396.5,708.5C 394.247,707.257 392.247,705.59 390.5,703.5C 376.485,686.814 362.819,669.814 349.5,652.5C 335.405,637.745 322.072,622.411 309.5,606.5C 293.721,582.704 292.387,558.037 305.5,532.5C 329.412,503.245 353.745,474.245 378.5,445.5 Z"/></g>
<g><path style="opacity:1" fill="#027748" d="M 463.5,592.5 C 464.434,593.568 464.768,594.901 464.5,596.5C 466.484,596.383 468.15,597.05 469.5,598.5C 473.549,603.87 477.549,609.204 481.5,614.5C 479.863,615.218 478.197,615.384 476.5,615C 473.471,612.665 470.471,610.332 467.5,608C 462.596,607.39 460.096,604.557 460,599.5C 456.314,594.862 454.647,595.528 455,601.5C 449.946,602.39 447.78,605.39 448.5,610.5C 444.5,610.5 442.5,612.5 442.5,616.5C 438.5,616.5 434.5,616.5 430.5,616.5C 430.5,618.167 430.5,619.833 430.5,621.5C 429.5,621.5 428.5,621.5 427.5,621.5C 427.617,623.484 426.95,625.15 425.5,626.5C 427.124,627.869 427.624,629.536 427,631.5C 423.31,636.854 418.976,641.52 414,645.5C 408.986,665.249 405.819,685.249 404.5,705.5C 400.712,702.174 400.546,698.507 404,694.5C 403.291,671.07 407.624,648.737 417,627.5C 419.773,613.676 424.606,600.676 431.5,588.5C 433.149,586.35 434.982,584.35 437,582.5C 440,576.833 443,571.167 446,565.5C 446.689,564.643 447.522,563.977 448.5,563.5C 449.329,568.802 449.829,574.136 450,579.5C 453.023,583.721 455.19,588.387 456.5,593.5C 457.748,594.04 458.915,594.707 460,595.5C 460.985,594.186 462.152,593.186 463.5,592.5 Z"/></g>
<g><path style="opacity:1" fill="#028251" d="M 481.5,614.5 C 487.337,620.614 493.003,626.947 498.5,633.5C 499.63,634.622 500.297,635.956 500.5,637.5C 499.279,636.972 498.113,636.305 497,635.5C 496.283,636.044 495.783,636.711 495.5,637.5C 491.263,637.07 488.763,634.736 488,630.5C 485.419,629.167 483.252,627.334 481.5,625C 480.207,624.51 478.873,624.343 477.5,624.5C 477.5,625.833 477.5,627.167 477.5,628.5C 476.5,628.5 475.5,628.5 474.5,628.5C 474.338,631.669 472.672,633.669 469.5,634.5C 466.863,640.47 462.53,644.804 456.5,647.5C 455.846,649.115 455.346,650.782 455,652.5C 451.705,653.961 449.205,656.294 447.5,659.5C 443.609,659.753 441.609,661.753 441.5,665.5C 440.07,665.421 438.736,665.754 437.5,666.5C 433.534,670.284 430.201,674.451 427.5,679C 424.977,679.518 422.977,680.852 421.5,683C 418.905,683.226 416.405,683.726 414,684.5C 407.761,694.032 405.594,704.366 407.5,715.5C 408.5,715.5 409.5,715.5 410.5,715.5C 410.146,718.421 411.146,720.754 413.5,722.5C 412.23,723.288 411.23,724.288 410.5,725.5C 407.062,722.735 404.396,719.401 402.5,715.5C 401.086,713.402 401.752,712.402 404.5,712.5C 404.5,710.167 404.5,707.833 404.5,705.5C 405.819,685.249 408.986,665.249 414,645.5C 418.976,641.52 423.31,636.854 427,631.5C 427.624,629.536 427.124,627.869 425.5,626.5C 426.95,625.15 427.617,623.484 427.5,621.5C 428.5,621.5 429.5,621.5 430.5,621.5C 430.5,619.833 430.5,618.167 430.5,616.5C 434.5,616.5 438.5,616.5 442.5,616.5C 442.5,612.5 444.5,610.5 448.5,610.5C 447.78,605.39 449.946,602.39 455,601.5C 454.647,595.528 456.314,594.862 460,599.5C 460.096,604.557 462.596,607.39 467.5,608C 470.471,610.332 473.471,612.665 476.5,615C 478.197,615.384 479.863,615.218 481.5,614.5 Z"/></g>
<g><path style="opacity:1" fill="#03905c" d="M 495.5,637.5 C 495.351,638.552 495.517,639.552 496,640.5C 498.333,642.531 500.167,644.865 501.5,647.5C 499.983,647.489 498.816,646.823 498,645.5C 496.29,649.219 493.79,652.386 490.5,655C 487.741,655.977 485.741,655.144 484.5,652.5C 483.691,653.681 483.691,655.014 484.5,656.5C 483.21,658.792 481.543,660.792 479.5,662.5C 478.692,664.423 478.192,666.423 478,668.5C 473.527,669.935 469.027,671.269 464.5,672.5C 464.5,673.833 464.5,675.167 464.5,676.5C 461.833,677.167 459.167,677.833 456.5,678.5C 456.5,682.5 454.5,684.5 450.5,684.5C 450.5,685.833 450.5,687.167 450.5,688.5C 449.167,688.5 447.833,688.5 446.5,688.5C 446.5,689.833 446.5,691.167 446.5,692.5C 441.82,693.672 437.487,695.672 433.5,698.5C 430.456,701.544 427.456,704.544 424.5,707.5C 427.403,710.904 426.736,713.238 422.5,714.5C 420.722,713.055 418.722,712.055 416.5,711.5C 412.934,713.196 411.934,715.863 413.5,719.5C 416.286,723.708 419.286,727.708 422.5,731.5C 424.595,734.774 426.929,737.94 429.5,741C 427.765,741.651 426.098,741.485 424.5,740.5C 423.537,740.97 423.537,741.637 424.5,742.5C 419.375,737.255 414.708,731.589 410.5,725.5C 411.23,724.288 412.23,723.288 413.5,722.5C 411.146,720.754 410.146,718.421 410.5,715.5C 409.5,715.5 408.5,715.5 407.5,715.5C 405.594,704.366 407.761,694.032 414,684.5C 416.405,683.726 418.905,683.226 421.5,683C 422.977,680.852 424.977,679.518 427.5,679C 430.201,674.451 433.534,670.284 437.5,666.5C 438.736,665.754 440.07,665.421 441.5,665.5C 441.609,661.753 443.609,659.753 447.5,659.5C 449.205,656.294 451.705,653.961 455,652.5C 455.346,650.782 455.846,649.115 456.5,647.5C 462.53,644.804 466.863,640.47 469.5,634.5C 472.672,633.669 474.338,631.669 474.5,628.5C 475.5,628.5 476.5,628.5 477.5,628.5C 477.5,627.167 477.5,625.833 477.5,624.5C 478.873,624.343 480.207,624.51 481.5,625C 483.252,627.334 485.419,629.167 488,630.5C 488.763,634.736 491.263,637.07 495.5,637.5 Z"/></g>
<g><path style="opacity:1" fill="#039863" d="M 501.5,647.5 C 506.073,652.483 510.74,657.483 515.5,662.5C 512.827,660.824 510.16,659.157 507.5,657.5C 506.833,657.833 506.167,658.167 505.5,658.5C 506.309,660.071 506.643,661.738 506.5,663.5C 504.076,663.192 501.743,663.526 499.5,664.5C 499.136,666.733 498.136,668.566 496.5,670C 492.546,671.154 488.546,671.987 484.5,672.5C 482.413,679.416 477.746,683.25 470.5,684C 469.76,685.785 469.093,687.618 468.5,689.5C 464.5,692.167 460.5,694.833 456.5,697.5C 453.854,699.132 452.521,701.465 452.5,704.5C 447.595,707.198 442.429,709.532 437,711.5C 436.333,712.5 436.333,713.5 437,714.5C 438.333,715.167 439.667,715.833 441,716.5C 441.652,719.594 441.318,722.594 440,725.5C 435.998,722.001 431.665,719.001 427,716.5C 425.124,717.619 424.291,719.286 424.5,721.5C 429.213,721.468 430.713,723.801 429,728.5C 426.919,727.667 424.752,727.667 422.5,728.5C 422.5,729.5 422.5,730.5 422.5,731.5C 419.286,727.708 416.286,723.708 413.5,719.5C 411.934,715.863 412.934,713.196 416.5,711.5C 418.722,712.055 420.722,713.055 422.5,714.5C 426.736,713.238 427.403,710.904 424.5,707.5C 427.456,704.544 430.456,701.544 433.5,698.5C 437.487,695.672 441.82,693.672 446.5,692.5C 446.5,691.167 446.5,689.833 446.5,688.5C 447.833,688.5 449.167,688.5 450.5,688.5C 450.5,687.167 450.5,685.833 450.5,684.5C 454.5,684.5 456.5,682.5 456.5,678.5C 459.167,677.833 461.833,677.167 464.5,676.5C 464.5,675.167 464.5,673.833 464.5,672.5C 469.027,671.269 473.527,669.935 478,668.5C 478.192,666.423 478.692,664.423 479.5,662.5C 481.543,660.792 483.21,658.792 484.5,656.5C 483.691,655.014 483.691,653.681 484.5,652.5C 485.741,655.144 487.741,655.977 490.5,655C 493.79,652.386 496.29,649.219 498,645.5C 498.816,646.823 499.983,647.489 501.5,647.5 Z"/></g>
<g><path style="opacity:0.445" fill="#168e69" d="M 500.5,637.5 C 507.266,643.6 512.932,650.6 517.5,658.5C 522.146,661.146 525.813,664.813 528.5,669.5C 533.847,672.11 539.514,673.11 545.5,672.5C 547.118,674.325 548.785,676.158 550.5,678C 549.434,680.419 548.1,682.586 546.5,684.5C 546.5,682.167 546.5,679.833 546.5,677.5C 545.5,677.5 544.5,677.5 543.5,677.5C 539.818,677.665 536.152,677.499 532.5,677C 531.263,676.768 530.263,676.268 529.5,675.5C 528.131,671.804 525.464,669.47 521.5,668.5C 519.785,666.118 517.785,664.118 515.5,662.5C 510.74,657.483 506.073,652.483 501.5,647.5C 500.167,644.865 498.333,642.531 496,640.5C 495.517,639.552 495.351,638.552 495.5,637.5C 495.783,636.711 496.283,636.044 497,635.5C 498.113,636.305 499.279,636.972 500.5,637.5 Z"/></g>
<g><path style="opacity:1" fill="#09a16b" d="M 515.5,662.5 C 517.785,664.118 519.785,666.118 521.5,668.5C 525.464,669.47 528.131,671.804 529.5,675.5C 526.915,675.432 524.582,674.932 522.5,674C 521.773,675.399 521.273,676.899 521,678.5C 518.833,679.333 517.333,680.833 516.5,683C 510.808,686.756 504.808,689.922 498.5,692.5C 498.5,693.833 498.5,695.167 498.5,696.5C 494.345,696.872 490.345,697.872 486.5,699.5C 484.946,701.879 483.613,704.379 482.5,707C 477.73,711.228 472.396,714.728 466.5,717.5C 465.03,722.639 461.697,725.639 456.5,726.5C 456.613,729.049 455.946,731.382 454.5,733.5C 451.416,737.549 447.416,740.382 442.5,742C 441.166,745.728 439.166,746.228 436.5,743.5C 435.771,745.595 436.437,747.428 438.5,749C 442.783,749.685 444.95,752.185 445,756.5C 446.985,760.139 449.318,763.473 452,766.5C 452.941,768.989 452.441,770.989 450.5,772.5C 447.577,770.585 444.91,768.251 442.5,765.5C 436.071,758.082 430.071,750.416 424.5,742.5C 423.537,741.637 423.537,740.97 424.5,740.5C 426.098,741.485 427.765,741.651 429.5,741C 426.929,737.94 424.595,734.774 422.5,731.5C 422.5,730.5 422.5,729.5 422.5,728.5C 424.752,727.667 426.919,727.667 429,728.5C 430.713,723.801 429.213,721.468 424.5,721.5C 424.291,719.286 425.124,717.619 427,716.5C 431.665,719.001 435.998,722.001 440,725.5C 441.318,722.594 441.652,719.594 441,716.5C 439.667,715.833 438.333,715.167 437,714.5C 436.333,713.5 436.333,712.5 437,711.5C 442.429,709.532 447.595,707.198 452.5,704.5C 452.521,701.465 453.854,699.132 456.5,697.5C 460.5,694.833 464.5,692.167 468.5,689.5C 469.093,687.618 469.76,685.785 470.5,684C 477.746,683.25 482.413,679.416 484.5,672.5C 488.546,671.987 492.546,671.154 496.5,670C 498.136,668.566 499.136,666.733 499.5,664.5C 501.743,663.526 504.076,663.192 506.5,663.5C 506.643,661.738 506.309,660.071 505.5,658.5C 506.167,658.167 506.833,657.833 507.5,657.5C 510.16,659.157 512.827,660.824 515.5,662.5 Z"/></g>
<g><path style="opacity:1" fill="#0db077" d="M 529.5,675.5 C 530.263,676.268 531.263,676.768 532.5,677C 536.152,677.499 539.818,677.665 543.5,677.5C 545.845,679.566 546.011,681.9 544,684.5C 542.305,687.695 539.805,690.028 536.5,691.5C 535.811,693.444 535.311,695.444 535,697.5C 534.623,698.942 533.79,699.942 532.5,700.5C 527.024,701.801 524.858,705.134 526,710.5C 524.647,709.315 523.48,707.981 522.5,706.5C 520.08,709.2 517.08,710.534 513.5,710.5C 513.801,717.976 510.468,720.643 503.5,718.5C 502.369,715.745 500.702,713.411 498.5,711.5C 495.728,716.145 497.061,719.311 502.5,721C 501.437,722.188 500.103,722.688 498.5,722.5C 498.5,726.5 496.5,728.5 492.5,728.5C 492.457,731.088 491.457,733.254 489.5,735C 485.894,737.143 482.228,738.977 478.5,740.5C 478.351,744.322 476.351,746.655 472.5,747.5C 471.184,748.807 470.184,750.307 469.5,752C 465.92,750.28 461.92,749.447 457.5,749.5C 457.208,752.765 457.875,755.765 459.5,758.5C 459.363,761.79 457.863,764.123 455,765.5C 454.512,771.842 457.012,773.508 462.5,770.5C 463.487,773.768 463.82,777.102 463.5,780.5C 462.132,778.582 461.132,776.415 460.5,774C 458.302,773.627 456.135,773.127 454,772.5C 453.5,772.833 453,773.167 452.5,773.5C 454.38,774.714 454.713,776.048 453.5,777.5C 452.11,776.101 451.11,774.434 450.5,772.5C 452.441,770.989 452.941,768.989 452,766.5C 449.318,763.473 446.985,760.139 445,756.5C 444.95,752.185 442.783,749.685 438.5,749C 436.437,747.428 435.771,745.595 436.5,743.5C 439.166,746.228 441.166,745.728 442.5,742C 447.416,740.382 451.416,737.549 454.5,733.5C 455.946,731.382 456.613,729.049 456.5,726.5C 461.697,725.639 465.03,722.639 466.5,717.5C 472.396,714.728 477.73,711.228 482.5,707C 483.613,704.379 484.946,701.879 486.5,699.5C 490.345,697.872 494.345,696.872 498.5,696.5C 498.5,695.167 498.5,693.833 498.5,692.5C 504.808,689.922 510.808,686.756 516.5,683C 517.333,680.833 518.833,679.333 521,678.5C 521.273,676.899 521.773,675.399 522.5,674C 524.582,674.932 526.915,675.432 529.5,675.5 Z"/></g>
<g><path style="opacity:1" fill="#08858d" d="M 554.5,668.5 C 555.929,669.234 556.929,670.401 557.5,672C 556.713,674.099 556.38,676.266 556.5,678.5C 555.448,678.351 554.448,678.517 553.5,679C 551.812,681.268 549.979,683.435 548,685.5C 545.827,692.018 543.16,698.351 540,704.5C 537.051,706.373 535.051,709.039 534,712.5C 530.874,725.151 526.874,737.484 522,749.5C 517.552,774.797 517.386,800.13 521.5,825.5C 520.416,823.491 519.416,821.324 518.5,819C 513.727,789.956 514.56,761.122 521,732.5C 526.553,725.056 530.219,716.722 532,707.5C 537.029,702.306 541.363,696.639 545,690.5C 546.128,688.655 546.628,686.655 546.5,684.5C 548.1,682.586 549.434,680.419 550.5,678C 548.785,676.158 547.118,674.325 545.5,672.5C 548.706,671.546 551.706,670.213 554.5,668.5 Z"/></g>
<g><path style="opacity:1" fill="#1cbf86" d="M 532.5,700.5 C 530.135,706.104 527.302,711.437 524,716.5C 524.353,722.78 522.353,728.114 518,732.5C 517.573,741.634 516.24,750.634 514,759.5C 513.109,777.226 513.609,794.892 515.5,812.5C 514.379,810.046 513.546,807.379 513,804.5C 512.667,793.833 512.333,783.167 512,772.5C 511.111,775.687 510.278,778.853 509.5,782C 509.167,782.167 508.833,782.333 508.5,782.5C 506.7,774.863 505.033,775.197 503.5,783.5C 499.281,784.6 496.281,787.1 494.5,791C 489.73,791.685 485.897,793.851 483,797.5C 482.05,796.978 481.216,796.311 480.5,795.5C 480.167,795.833 479.833,796.167 479.5,796.5C 481.387,799.153 482.887,801.819 484,804.5C 482.961,803.29 481.794,802.29 480.5,801.5C 477.006,799.5 474.84,796.5 474,792.5C 472.989,791.663 471.822,791.33 470.5,791.5C 470.657,790.127 470.49,788.793 470,787.5C 466.896,785.896 464.729,783.563 463.5,780.5C 463.82,777.102 463.487,773.768 462.5,770.5C 457.012,773.508 454.512,771.842 455,765.5C 457.863,764.123 459.363,761.79 459.5,758.5C 457.875,755.765 457.208,752.765 457.5,749.5C 461.92,749.447 465.92,750.28 469.5,752C 470.184,750.307 471.184,748.807 472.5,747.5C 476.351,746.655 478.351,744.322 478.5,740.5C 482.228,738.977 485.894,737.143 489.5,735C 491.457,733.254 492.457,731.088 492.5,728.5C 496.5,728.5 498.5,726.5 498.5,722.5C 500.103,722.688 501.437,722.188 502.5,721C 497.061,719.311 495.728,716.145 498.5,711.5C 500.702,713.411 502.369,715.745 503.5,718.5C 510.468,720.643 513.801,717.976 513.5,710.5C 517.08,710.534 520.08,709.2 522.5,706.5C 523.48,707.981 524.647,709.315 526,710.5C 524.858,705.134 527.024,701.801 532.5,700.5 Z"/></g>
<g><path style="opacity:0.229" fill="#3ab695" d="M 543.5,677.5 C 544.5,677.5 545.5,677.5 546.5,677.5C 546.5,679.833 546.5,682.167 546.5,684.5C 546.628,686.655 546.128,688.655 545,690.5C 541.363,696.639 537.029,702.306 532,707.5C 530.219,716.722 526.553,725.056 521,732.5C 514.56,761.122 513.727,789.956 518.5,819C 519.416,821.324 520.416,823.491 521.5,825.5C 521.748,829.906 522.415,834.24 523.5,838.5C 524.024,842.93 525.024,847.264 526.5,851.5C 526.392,852.442 526.059,853.275 525.5,854C 523.866,854.494 522.199,854.66 520.5,854.5C 514.932,849.938 509.599,844.938 504.5,839.5C 487.425,818.771 470.425,798.105 453.5,777.5C 454.713,776.048 454.38,774.714 452.5,773.5C 453,773.167 453.5,772.833 454,772.5C 456.135,773.127 458.302,773.627 460.5,774C 461.132,776.415 462.132,778.582 463.5,780.5C 464.729,783.563 466.896,785.896 470,787.5C 470.49,788.793 470.657,790.127 470.5,791.5C 471.822,791.33 472.989,791.663 474,792.5C 474.84,796.5 477.006,799.5 480.5,801.5C 485.146,807.642 489.646,813.975 494,820.5C 497.837,824.563 501.837,828.563 506,832.5C 506.739,834.221 507.573,835.887 508.5,837.5C 512.94,839.603 515.94,842.936 517.5,847.5C 519.144,847.286 520.644,847.62 522,848.5C 521.321,844.117 519.987,839.784 518,835.5C 517.976,827.591 517.143,819.925 515.5,812.5C 513.609,794.892 513.109,777.226 514,759.5C 516.24,750.634 517.573,741.634 518,732.5C 522.353,728.114 524.353,722.78 524,716.5C 527.302,711.437 530.135,706.104 532.5,700.5C 533.79,699.942 534.623,698.942 535,697.5C 535.311,695.444 535.811,693.444 536.5,691.5C 539.805,690.028 542.305,687.695 544,684.5C 546.011,681.9 545.845,679.566 543.5,677.5 Z"/></g>
<g><path style="opacity:1" fill="#3ed59c" d="M 515.5,812.5 C 517.143,819.925 517.976,827.591 518,835.5C 519.987,839.784 521.321,844.117 522,848.5C 520.644,847.62 519.144,847.286 517.5,847.5C 515.94,842.936 512.94,839.603 508.5,837.5C 507.573,835.887 506.739,834.221 506,832.5C 501.837,828.563 497.837,824.563 494,820.5C 489.646,813.975 485.146,807.642 480.5,801.5C 481.794,802.29 482.961,803.29 484,804.5C 482.887,801.819 481.387,799.153 479.5,796.5C 479.833,796.167 480.167,795.833 480.5,795.5C 481.216,796.311 482.05,796.978 483,797.5C 485.897,793.851 489.73,791.685 494.5,791C 496.281,787.1 499.281,784.6 503.5,783.5C 505.033,775.197 506.7,774.863 508.5,782.5C 508.833,782.333 509.167,782.167 509.5,782C 510.278,778.853 511.111,775.687 512,772.5C 512.333,783.167 512.667,793.833 513,804.5C 513.546,807.379 514.379,810.046 515.5,812.5 Z"/></g>
<g><path style="opacity:1" fill="#339d97" d="M 523.5,838.5 C 524.376,838.369 525.043,838.702 525.5,839.5C 527.844,844.731 529.177,850.231 529.5,856C 529.316,857.376 528.649,858.209 527.5,858.5C 524.318,858.416 521.985,857.083 520.5,854.5C 522.199,854.66 523.866,854.494 525.5,854C 526.059,853.275 526.392,852.442 526.5,851.5C 525.024,847.264 524.024,842.93 523.5,838.5 Z"/></g>
</svg>
