<svg width="1024" height="1024" xmlns="http://www.w3.org/2000/svg" stroke="null" style="vector-effect: non-scaling-stroke;" version="1.1" class="icon">

 <g stroke="null">
  <title stroke="null" style="vector-effect: non-scaling-stroke;">background</title>
  <rect stroke="null" fill="none" id="canvas_background" height="612" width="1278" y="-1" x="-1"/>
 </g>
 <g stroke="null">
  <title stroke="null">Layer 1</title>
  <g stroke="null" style="vector-effect: non-scaling-stroke;" id="svg_5">
   <g stroke="null" id="svg_6">
    <g stroke="null" id="svg_3">
     <path stroke="null" id="svg_1" fill="#73C69A" d="m622.777455,84.387303c-3.579137,-10.339729 -53.437659,-4.71826 -78.188301,6.349429s-110.097216,78.579242 -127.069469,115.934377s-11.694543,43.232738 -20.221112,56.814585s-11.526034,22.445435 -14.9097,18.643865s-1.509843,-11.229458 5.27771,-24.602353s18.873038,-37.072039 21.710734,-52.965833s-6.841476,-75.033807 -7.791869,-99.292401s-10.420613,-71.313122 -22.647646,-71.697324s-46.677067,46.771433 -50.653886,82.306667s-11.768687,93.980989 2.837696,131.518114s22.991405,28.403922 27.804029,45.0796s-9.436519,55.608059 -27.601818,79.118472s-24.939372,31.571897 -32.53577,29.104921s-11.45863,-19.547075 -6.106776,-31.517974s17.673252,-25.020256 17.848502,-41.486982s-6.288766,-76.314478 -10.258844,-91.709484s-14.033452,-49.420398 -15.381526,-62.584342s1.921006,-45.463801 -7.151533,-48.807025c-15.967938,-5.102461 -38.682988,34.220862 -51.294221,89.141403s4.623894,99.757487 10.231883,108.769363s18.771933,31.160734 28.073644,41.26455s17.396897,14.080634 19.843651,31.389907s3.666762,25.963908 -6.598823,50.323608s-44.526889,100.660697 -55.945077,112.193471c-2.824215,-28.579172 4.36102,-20.322218 4.994615,-42.848537s-2.055813,-29.529564 2.022111,-49.912445s-14.249144,-93.967508 -31.005705,-113.514584c-8.17607,-10.144258 -5.392297,-36.121647 -10.326248,-36.620434s-6.36291,-1.64465 -9.382596,15.051248s-28.983594,68.751782 -23.099251,114.208842s8.641155,49.690013 14.73445,59.106311s14.532239,15.705064 20.989514,33.870363s7.293081,27.298501 13.972789,32.650356s-10.899179,62.557381 -10.899179,62.557381l18.987624,4.044222s16.7296,-84.524249 33.789479,-92.343079s25.128102,11.883274 56.127067,12.098965s69.99201,-10.72393 87.146253,-17.673252s27.777068,-10.825035 44.702139,-24.534949s38.022431,-45.551425 50.465156,-60.508308s21.319793,-17.241868 17.423858,-22.55328s-22.445435,-2.298466 -41.116262,-1.26719s-77.312052,4.394722 -120.389762,20.039122s-57.374036,48.395862 -64.788444,56.875248s-9.861162,18.616904 -16.507168,14.37047s-3.188195,-9.915085 0.862767,-15.758987s52.72992,-119.304562 109.463621,-129.529705c27.413088,-3.909415 25.519044,16.662196 62.254064,17.524964s93.62375,-12.644936 136.479027,-66.392652c31.774108,-39.896254 41.116262,-76.779563 44.91109,-81.558486s-19.351604,-8.90403 -35.986839,-4.36102s-23.591298,10.885699 -39.714264,13.022396s-85.434199,7.151533 -114.862658,34.712909s-32.17179,61.337374 -45.113301,69.486482s-28.242153,16.850927 -29.880063,11.492332s28.572432,-67.99686 52.932131,-95.497573c7.852532,-9.227568 19.547075,-3.646541 45.234628,-16.588052s97.061339,-69.243829 117.902565,-91.911695s21.62985,-39.559236 38.939122,-53.747716s20.787303,-23.422788 19.466191,-27.27828z"/>
     <path stroke="null" id="svg_2" fill="#00757F" d="m183.494013,339.658623c-7.684023,27.9995 -4.792404,82.326888 0.741441,108.695219s21.218687,101.894184 21.218687,101.894184s-11.45863,-79.657701 -16.36562,-111.485732s-5.594508,-99.103671 -5.594508,-99.103671zm77.177245,-187.678883c-10.501498,32.994115 -9.915085,87.921396 -7.778388,104.098286s17.322753,96.582772 26.287446,106.90228c-11.64062,-50.047253 -19.203316,-81.558486 -22.384771,-110.818435c-3.134272,-29.050998 -0.215692,-52.386161 3.875713,-100.18213zm215.577277,290.496498c-22.54654,26.287446 -69.601068,54.664407 -84.436624,61.337374s-91.27136,36.034022 -104.765582,33.81644c48.699179,-16.406062 79.45549,-26.530099 106.032772,-39.215477c26.348109,-12.577532 44.668437,-27.318723 83.169435,-55.938337zm-105.08238,-388.198172c-6.801034,18.677567 -29.596968,137.98887 -14.215442,188.844967c-9.827461,-58.614264 14.215442,-188.844967 14.215442,-188.844967zm206.342969,57.697574c-26.590763,14.437874 -143.940617,112.90121 -152.157129,125.128242c22.526319,-15.031027 152.157129,-125.128242 152.157129,-125.128242zm11.249679,155.325103c-12.53709,16.702639 -115.199676,105.823821 -184.322178,97.735376c107.603278,-21.697253 184.322178,-97.735376 184.322178,-97.735376z"/>
    </g>
    <text stroke="null" data-immersive-translate-walked="2630ae06-5300-47aa-b897-d41959af7c50" transform="matrix(1.6012788324086695,0,0,1.6012788324086695,-372.7320810702097,-325.7688092795493) " font-weight="bold" xml:space="preserve" text-anchor="start" font-family="Euphoria, sans-serif" font-size="134" id="svg_4" y="560.891" x="555.696688" fill-opacity="null" stroke-opacity="null" stroke-width="0" fill="#000000">Steven</text>
   </g>
  </g>
 </g>
</svg>