<svg width="1024" height="1024" xmlns="http://www.w3.org/2000/svg" version="1.1" class="icon">

 <g>
  <title>Layer 1</title>
  <g stroke="null" id="svg_3">
   <path stroke="null" id="svg_1" fill="#73C69A" d="m261.61268,75.43503c-0.74294,-2.14626 -11.09227,-0.97939 -16.22986,1.31798s-22.85332,16.31101 -26.37631,24.06496s-2.42748,8.97399 -4.19738,11.79323s-2.3925,4.65909 -3.09487,3.86998s-0.3134,-2.33094 1.09552,-5.10681s3.91755,-7.69519 4.50658,-10.99433s-1.42011,-15.57506 -1.61739,-20.61052s-2.16305,-14.80275 -4.70106,-14.8825s-9.68894,9.70853 -10.51443,17.08472s-2.44287,19.50801 0.58903,27.29974s4.77242,5.89591 5.77139,9.35735s-1.95878,11.54279 -5.72942,16.42294s-5.17676,6.5535 -6.75358,6.04142s-2.37851,-4.05746 -1.26761,-6.54231s3.66851,-5.19355 3.70488,-8.61162s-1.30538,-15.8409 -2.12947,-19.0365s-2.91298,-10.25839 -3.1928,-12.99088s0.39875,-9.4371 -1.48447,-10.13107c-3.31453,-1.05914 -8.02958,7.10336 -10.64735,18.50343s0.9598,20.70706 2.12387,22.57769s3.89656,6.46816 5.82736,8.56545s3.61114,2.92277 4.11903,6.51573s0.76112,5.38943 -1.36974,10.44587s-9.24262,20.89454 -11.61274,23.28844c-0.58623,-5.93229 0.90523,-4.21836 1.03675,-8.89424s-0.42673,-6.12957 0.41974,-10.36052s-2.95775,-19.50521 -6.43598,-23.56267c-1.69714,-2.10568 -1.1193,-7.49791 -2.14346,-7.60145s-1.32077,-0.34139 -1.94758,3.12425s-6.01624,14.27108 -4.7948,23.70678s1.79368,10.31435 3.05849,12.26893s3.01651,3.25996 4.35688,7.03061s1.51385,5.66646 2.90039,6.77736s-2.26239,12.98528 -2.26239,12.98528l3.94134,0.83948s3.47263,-17.54503 7.01382,-19.16802s5.21594,2.46666 11.65052,2.51143s14.52852,-2.22601 18.08929,-3.66851s5.7658,-2.247 9.279,-5.09282s7.89247,-9.45529 10.47525,-12.55995s4.42543,-3.57896 3.61674,-4.68147s-4.65909,-0.4771 -8.53467,-0.26304s-16.04797,0.91223 -24.98978,4.1596s-11.90936,10.04572 -13.44839,11.80582s-2.04692,3.86438 -3.42646,2.98294s-0.66179,-2.05811 0.17909,-3.27116s10.94536,-24.76452 22.7218,-26.88699c5.69024,-0.81149 5.29709,3.45864 12.92232,3.63773s19.43385,-2.62476 28.32949,-13.78139c6.59548,-8.28142 8.53467,-15.93744 9.32237,-16.92942s-4.01689,-1.84824 -7.46993,-0.90523s-4.89694,2.25959 -8.24365,2.70311s-17.73392,1.48447 -23.8425,7.2055s-6.67803,12.73204 -9.36435,14.42358s-5.86234,3.49781 -6.20232,2.38551s5.93089,-14.11438 10.98733,-19.82281c1.62998,-1.9154 4.05746,-0.75693 9.38953,-3.44325s20.14741,-14.37322 24.4735,-19.07848s4.48979,-8.21147 8.08275,-11.15663s4.3149,-4.86196 4.04067,-5.66226z"/>
   <path stroke="null" id="svg_2" fill="#00757F" d="m170.42888,128.42271c-1.595,5.81197 -0.99478,17.08892 0.1539,22.5623s4.40445,21.15058 4.40445,21.15058s-2.37851,-16.53487 -3.39708,-23.14154s-1.16127,-20.57134 -1.16127,-20.57134zm16.01999,-38.95725c-2.17984,6.84872 -2.05811,18.25019 -1.61459,21.60809s3.59575,20.04807 5.45659,22.19013c-2.41629,-10.38851 -3.98611,-16.92942 -4.6465,-23.00302c-0.65059,-6.03023 -0.04477,-10.874 0.8045,-20.7952zm44.74823,60.29951c-4.68007,5.45659 -14.44737,11.34691 -17.52685,12.73204s-18.94556,7.47972 -21.74661,7.01941c10.10868,-3.40547 16.49289,-5.50696 22.00964,-8.14011c5.46918,-2.61077 9.272,-5.67066 17.26381,-11.61134zm-21.81237,-80.57983c-1.41172,3.87698 -6.14356,28.6429 -2.95076,39.1993c-2.03992,-12.1668 2.95076,-39.1993 2.95076,-39.1993zm42.83143,11.97651c-5.51955,2.99693 -29.87832,23.43535 -31.58386,25.97337c4.67588,-3.12005 31.58386,-25.97337 31.58386,-25.97337zm2.33514,32.24145c-2.60237,3.46703 -23.91245,21.96627 -38.26049,20.28732c22.33564,-4.50378 38.26049,-20.28732 38.26049,-20.28732z"/>
  </g>
  <text style="cursor: move;" font-weight="bold" transform="matrix(2.28576 0 0 2.28576 -333.011 -213.564)" stroke="null" xml:space="preserve" text-anchor="start" font-family="'Red Hat Text'" font-size="24" stroke-width="0" id="svg_4" y="172.92477" x="253.31259" fill="#000000">Steven</text>
 </g>
</svg>